<?xml version="1.0" encoding="UTF-8" standalone="no"?>
<svg
   viewBox="0 0 5206.48 2713.9067"
   height="2713.9067"
   width="5206.48"
   xml:space="preserve"
   id="svg2"
   version="1.1"
   sodipodi:docname="iStock-1208691862.svg"
   inkscape:version="1.1.2 (b8e25be8, 2022-02-05)"
   xmlns:inkscape="http://www.inkscape.org/namespaces/inkscape"
   xmlns:sodipodi="http://sodipodi.sourceforge.net/DTD/sodipodi-0.dtd"
   xmlns="http://www.w3.org/2000/svg"
   xmlns:svg="http://www.w3.org/2000/svg"
   xmlns:rdf="http://www.w3.org/1999/02/22-rdf-syntax-ns#"
   xmlns:cc="http://creativecommons.org/ns#"
   xmlns:dc="http://purl.org/dc/elements/1.1/"><sodipodi:namedview
     id="namedview140"
     pagecolor="#ffffff"
     bordercolor="#666666"
     borderopacity="1.0"
     inkscape:pageshadow="2"
     inkscape:pageopacity="0"
     inkscape:pagecheckerboard="true"
     showgrid="false"
     showborder="false"
     inkscape:zoom="0.20801002"
     inkscape:cx="1165.8092"
     inkscape:cy="1415.7972"
     inkscape:window-width="1296"
     inkscape:window-height="1081"
     inkscape:window-x="0"
     inkscape:window-y="25"
     inkscape:window-maximized="0"
     inkscape:current-layer="svg2" /><metadata
     id="metadata8"><rdf:RDF><cc:Work
         rdf:about=""><dc:format>image/svg+xml</dc:format><dc:type
           rdf:resource="http://purl.org/dc/dcmitype/StillImage" /></cc:Work></rdf:RDF></metadata><defs
     id="defs6" /><g
     transform="matrix(1.3333333,0,0,-1.3333333,0,2713.9067)"
     id="g10"><g
       transform="scale(0.1)"
       id="g12"><g
         transform="scale(2.39562)"
         id="g14"><path
           id="path16"
           style="fill:#f2e8df;fill-opacity:1;fill-rule:nonzero;stroke:none"
           d="M 16300,0 H 0 V 8496.47 H 16300 V 0" /></g><g
         transform="scale(1.03696)"
         id="g18"><path
           id="path20"
           style="fill:#3f403e;fill-opacity:1;fill-rule:nonzero;stroke:none"
           d="m 15958.1,3124.24 c -147.1,0 -231.1,-61.43 -298.4,-158.74 -67.3,97.31 -151.3,158.74 -298.5,158.74 -188.4,0 -341.8,-137.52 -341.8,-306.57 0,-283.04 310.9,-557.11 611.6,-822.21 8.2,-7.24 18.4,-10.9 28.8,-10.9 10.2,0 20.4,3.66 28.6,10.9 300.7,265.1 611.6,539.36 611.6,822.21 0,169.05 -153.3,306.57 -341.9,306.57" /></g><g
         transform="scale(2.14588)"
         id="g22"><path
           id="path24"
           style="fill:#3f403e;fill-opacity:1;fill-rule:nonzero;stroke:none"
           d="m 15904.4,8192.28 c -264.7,-29.59 -471.2,-252.91 -471.2,-523.1 0,-290.16 238.2,-526.22 531.1,-526.22 86.2,0 169.8,20.31 244.9,59.18 -280.8,36.1 -499.3,276.01 -499.3,563.47 0,164.47 71.7,319.56 194.5,426.67 z m 59.9,-1091.25 c -316,0 -573.1,254.87 -573.1,568.15 0,313.39 257.1,568.36 573.1,568.36 1.2,0 2.5,-0.07 3.8,-0.14 0.6,-0.03 1.1,-0.07 1.7,-0.07 9.2,0 17.3,-6 20.1,-14.79 2.7,-8.79 -0.7,-18.31 -8.3,-23.5 -143.8,-98.17 -229.8,-260.2 -229.8,-433.43 0,-287.34 235.8,-523.39 525.7,-526.2 9.1,-0.1 17.1,-6.11 19.8,-14.87 2.7,-8.76 -0.7,-18.23 -8.2,-23.4 -95.6,-65.49 -207.9,-100.11 -324.8,-100.11" /></g><g
         transform="scale(2.03443)"
         id="g26"><path
           id="path28"
           style="fill:#3f403e;fill-opacity:1;fill-rule:nonzero;stroke:none"
           d="m 16296.7,8760.22 c -71.9,-14.6 -87.7,-30.52 -102.4,-101.5 -0.7,-3.32 -5.4,-3.32 -6,0 -14.8,70.98 -30.6,86.9 -102.4,101.5 -3.4,0.66 -3.4,5.3 0,5.97 71.8,14.59 87.6,30.29 102.4,101.49 0.6,3.32 5.3,3.32 6,0 14.7,-71.2 30.5,-86.9 102.4,-101.49 3.3,-0.67 3.3,-5.31 0,-5.97 v 0" /></g><g
         transform="scale(2.13384)"
         id="g30"><path
           id="path32"
           style="fill:#3f403e;fill-opacity:1;fill-rule:nonzero;stroke:none"
           d="m 16197.9,7595.85 c -13.2,33.94 -20.6,58.4 -23.6,76.96 -18.5,2.94 -43.2,10.32 -77.4,23.19 v 1.26 c 34.2,12.86 58.9,20.24 77.4,23.19 3,18.34 10.4,42.8 23.6,76.95 h 1.1 c 12.9,-34.15 20.4,-58.61 23.3,-76.95 18.8,-2.95 43.4,-10.33 77.7,-23.19 V 7696 c -34.3,-12.87 -58.9,-20.25 -77.7,-23.19 -2.9,-18.56 -10.4,-43.02 -23.3,-76.96 h -1.1" /></g><g
         transform="scale(2.19494)"
         id="g34"><path
           id="path36"
           style="fill:#3f403e;fill-opacity:1;fill-rule:nonzero;stroke:none"
           d="m 16168.6,6853.36 c 131.4,-55.55 131.4,-4.92 0,-60.46 -56.1,-130.36 -5,-130.36 -61.2,0 -131.3,55.54 -131.3,4.91 0,60.46 56.2,130.35 5.1,130.35 61.2,0 v 0" /></g><g
         transform="scale(2.19196)"
         id="g38"><path
           id="path40"
           style="fill:#3f403e;fill-opacity:1;fill-rule:nonzero;stroke:none"
           d="m 16300,7926.62 c -121.9,-14.16 -133.5,-25.86 -148,-146.74 -14.5,120.88 -26.1,132.58 -148,146.74 121.9,14.37 133.5,25.86 148,146.75 14.5,-120.89 26.1,-132.38 148,-146.75 v 0" /></g><g
         transform="scale(2.10269)"
         id="g42"><path
           id="path44"
           style="fill:#3f403e;fill-opacity:1;fill-rule:nonzero;stroke:none"
           d="m 16297.2,6947.57 c -61.3,-12.41 -75.1,-25.89 -87.6,-86.65 -0.7,-2.99 -4.5,-2.99 -5.2,0 -12.5,60.76 -26.3,74.24 -87.6,86.65 -2.8,0.65 -2.8,4.71 0,5.35 61.3,12.41 75.1,25.89 87.6,86.65 0.7,3 4.5,3 5.2,0 12.5,-60.76 26.3,-74.24 87.6,-86.65 2.8,-0.64 2.8,-4.7 0,-5.35 v 0" /></g><g
         transform="scale(2.00693)"
         id="g46"><path
           id="path48"
           style="fill:#3f403e;fill-opacity:1;fill-rule:nonzero;stroke:none"
           d="m 16024.6,8375.01 c 275.4,-67.03 275.4,-8.52 0,-75.55 -67.6,-273.03 -8.6,-273.03 -76.2,0 -275.6,67.03 -275.6,8.52 0,75.55 67.6,273.25 8.6,273.25 76.2,0 v 0" /></g><g
         transform="scale(2.01483)"
         id="g50"><path
           id="path52"
           style="fill:#3f403e;fill-opacity:1;fill-rule:nonzero;stroke:none"
           d="m 16213,7644.15 c -11,29.03 -17.3,49.8 -19.8,65.43 -15.9,2.45 -36.9,8.93 -66,19.86 v 0.9 c 29.1,10.94 50.1,17.41 66,19.88 2.5,15.62 8.8,36.39 19.8,65.42 h 1.2 c 11,-29.03 17.3,-49.8 19.8,-65.42 16,-2.47 36.9,-8.94 66,-19.88 v -0.9 c -29.1,-10.93 -50,-17.41 -66,-19.86 -2.5,-15.63 -8.8,-36.4 -19.8,-65.43 h -1.2" /></g><path
         id="path54"
         style="fill:#3f403e;fill-opacity:1;fill-rule:nonzero;stroke:none"
         d="m 9554.83,8660.1 219.51,67.5 -343.15,-375.2 z m -515.35,0 123.43,-307.8 -343,375.3 z m -11.24,1132.8 V 8757.7 l -307.95,94.7 v 1011.9 z m 15.14,88.9 -276.09,64 431.3,406.3 z m 507.54,0 -155.51,470.3 431.6,-406.4 z m 15.17,-88.9 307.96,71.4 V 8852.4 l -307.96,-94.7 z m -111.56,-1141.1 -157.54,-392.1 -157.24,392.1 z m -319.08,1221.9 161.54,489.5 161.85,-489.5 z M 9118.22,8741.8 V 9783.7 H 9476.1 V 8741.8 Z m 845.76,1179.6 c -0.02,1.6 -0.3,3.3 -0.51,5 -0.17,1.3 -0.23,2.8 -0.54,4.1 -0.03,0.2 -0.02,0.4 -0.06,0.5 -0.33,1.5 -0.93,2.8 -1.39,4.1 -0.45,1.4 -0.79,2.7 -1.35,4 -0.82,1.9 -1.87,3.5 -2.91,5.2 -0.52,0.9 -0.93,1.8 -1.51,2.6 -1.41,2 -3.06,3.8 -4.76,5.5 -0.39,0.4 -0.67,0.9 -1.06,1.2 l -0.17,0.2 c 0,0 -0.01,0 -0.03,0 l -621.91,585.6 c -0.38,0.3 -0.83,0.6 -1.21,0.9 -1.51,1.3 -3.06,2.6 -4.72,3.7 -0.82,0.5 -1.63,1 -2.47,1.5 -1.46,0.8 -2.95,1.6 -4.5,2.2 -0.89,0.4 -1.78,0.8 -2.7,1.2 -1.67,0.6 -3.4,1 -5.16,1.4 -0.78,0.2 -1.53,0.5 -2.31,0.6 -2.55,0.5 -5.13,0.7 -7.77,0.7 h -0.02 c -2.65,0 -5.24,-0.3 -7.78,-0.7 -0.78,-0.1 -1.53,-0.4 -2.3,-0.6 -1.76,-0.4 -3.49,-0.8 -5.18,-1.4 -0.92,-0.4 -1.79,-0.8 -2.69,-1.2 -1.53,-0.6 -3.02,-1.4 -4.47,-2.2 -0.85,-0.5 -1.69,-1 -2.52,-1.6 -1.58,-1 -3.05,-2.2 -4.47,-3.4 -0.46,-0.4 -0.98,-0.7 -1.43,-1.1 l -621.64,-585.8 c -0.7,-0.6 -1.2,-1.4 -1.85,-2.1 -1.36,-1.5 -2.74,-2.9 -3.91,-4.5 -0.74,-1.1 -1.26,-2.2 -1.91,-3.3 -0.88,-1.5 -1.81,-2.9 -2.52,-4.5 -0.63,-1.4 -1.01,-2.9 -1.49,-4.4 -0.41,-1.3 -0.98,-2.4 -1.29,-3.8 -0.04,-0.1 -0.03,-0.3 -0.06,-0.5 -0.3,-1.3 -0.37,-2.8 -0.54,-4.2 -0.21,-1.6 -0.49,-3.3 -0.5,-4.9 -0.01,-0.2 -0.06,-0.3 -0.06,-0.5 V 8819.1 c 0,-0.7 0.18,-1.5 0.22,-2.3 0.07,-1.4 0.18,-2.7 0.38,-4.1 0.2,-1.4 0.52,-2.9 0.87,-4.3 0.33,-1.3 0.66,-2.6 1.1,-3.8 0.49,-1.5 1.09,-2.9 1.72,-4.2 0.55,-1.2 1.09,-2.4 1.75,-3.5 0.74,-1.3 1.59,-2.5 2.47,-3.8 0.78,-1.1 1.55,-2.2 2.43,-3.2 0.3,-0.3 0.52,-0.8 0.84,-1.1 l 621.63,-680.2 c 0.31,-0.4 0.69,-0.6 0.99,-0.9 1.58,-1.6 3.26,-3.1 5.06,-4.5 0.47,-0.4 0.91,-0.8 1.4,-1.1 2.23,-1.6 4.6,-2.9 7.08,-4 0.62,-0.3 1.25,-0.5 1.88,-0.8 1.98,-0.8 4.03,-1.4 6.13,-2 0.79,-0.2 1.54,-0.3 2.33,-0.5 2.72,-0.5 5.5,-0.9 8.33,-0.9 0.02,0 0.02,0 0.02,0 2.85,0 5.63,0.4 8.37,0.9 0.75,0.2 1.49,0.3 2.23,0.5 2.16,0.5 4.24,1.2 6.27,2 0.59,0.3 1.19,0.5 1.77,0.7 2.49,1.2 4.87,2.5 7.12,4.1 0.49,0.3 0.92,0.7 1.39,1.1 1.79,1.4 3.46,2.8 5.03,4.5 0.32,0.3 0.71,0.5 1.02,0.9 l 622.1,680.2 c 0.33,0.3 0.55,0.8 0.86,1.1 0.87,1 1.64,2.1 2.4,3.2 0.89,1.2 1.75,2.5 2.49,3.8 0.65,1.1 1.19,2.3 1.75,3.5 0.63,1.3 1.23,2.7 1.72,4.1 0.43,1.3 0.77,2.6 1.09,3.9 0.36,1.4 0.67,2.9 0.89,4.3 0.19,1.4 0.3,2.7 0.38,4.1 0.04,0.8 0.21,1.5 0.21,2.3 v 23.4 1034.3 44.1 c 0,0.2 -0.04,0.3 -0.05,0.5" /><path
         id="path56"
         style="fill:#3f403e;fill-opacity:1;fill-rule:nonzero;stroke:none"
         d="m 8304.63,10123.5 -715.12,219.1 c -23.7,7.3 -48.92,-6 -56.19,-29.8 -7.28,-23.8 6.08,-48.9 29.84,-56.2 l 715.12,-219.1 c 4.39,-1.3 8.82,-2 13.19,-2 19.25,0 37.07,12.5 43,31.9 7.28,23.7 -6.08,48.9 -29.84,56.1" /><path
         id="path58"
         style="fill:#3f403e;fill-opacity:1;fill-rule:nonzero;stroke:none"
         d="m 8323.45,11109 c -15.18,19.7 -43.42,23.3 -63.1,8.2 -19.68,-15.2 -23.34,-43.5 -8.17,-63.1 l 370.27,-480.5 c 8.86,-11.5 22.19,-17.5 35.66,-17.5 9.59,0 19.25,3 27.43,9.3 19.68,15.2 23.35,43.4 8.17,63.1 l -370.26,480.5" /><path
         id="path60"
         style="fill:#3f403e;fill-opacity:1;fill-rule:nonzero;stroke:none"
         d="m 8278.28,9507.7 -509.56,-156.1 c -23.76,-7.3 -37.12,-32.5 -29.84,-56.2 5.92,-19.4 23.75,-31.8 42.99,-31.8 4.37,0 8.81,0.6 13.19,1.9 l 509.57,156.2 c 23.76,7.2 37.12,32.4 29.84,56.1 -7.27,23.8 -32.52,37.2 -56.19,29.9" /><path
         id="path62"
         style="fill:#3f403e;fill-opacity:1;fill-rule:nonzero;stroke:none"
         d="m 9296.52,11593 c -24.85,0 -45,-20.1 -45,-44.9 v -732.9 c 0,-24.8 20.15,-45 45,-45 24.84,0 44.99,20.2 44.99,45 v 732.9 c 0,24.8 -20.15,44.9 -44.99,44.9" /><path
         id="path64"
         style="fill:#3f403e;fill-opacity:1;fill-rule:nonzero;stroke:none"
         d="m 11061,10312.8 c -7.2,23.8 -32.5,37.1 -56.2,29.8 l -715.1,-219.1 c -23.7,-7.2 -37.1,-32.4 -29.8,-56.1 5.9,-19.4 23.7,-31.9 43,-31.9 4.3,0 8.8,0.7 13.2,2 l 715.1,219.1 c 23.7,7.3 37.1,32.4 29.8,56.2" /><path
         id="path66"
         style="fill:#3f403e;fill-opacity:1;fill-rule:nonzero;stroke:none"
         d="m 10334,11117.2 c -19.7,15.1 -47.9,11.5 -63.1,-8.2 l -370.27,-480.5 c -15.17,-19.7 -11.51,-47.9 8.17,-63.1 8.19,-6.3 17.84,-9.3 27.43,-9.3 13.47,0 26.8,6 35.67,17.5 l 370.3,480.5 c 15.1,19.6 11.5,47.9 -8.2,63.1" /><path
         id="path68"
         style="fill:#3f403e;fill-opacity:1;fill-rule:nonzero;stroke:none"
         d="m 10825.6,9351.6 -509.5,156.1 c -23.7,7.3 -49,-6.1 -56.2,-29.9 -7.3,-23.7 6.1,-48.9 29.8,-56.1 l 509.6,-156.2 c 4.4,-1.3 8.8,-1.9 13.2,-1.9 19.2,0 37,12.4 43,31.8 7.2,23.7 -6.1,48.9 -29.9,56.2" /><g
         transform="scale(1.2754)"
         id="g70"><path
           id="path72"
           style="fill:#3f403e;fill-opacity:1;fill-rule:nonzero;stroke:none"
           d="m 15957.8,6618.71 65.7,-278.96 276.5,82.87 -210.6,-196.1 210.6,-196.17 -276.5,82.88 -65.7,-278.98 -66.2,278.98 -276.5,-82.88 210.7,196.17 -210.7,196.1 276.5,-82.87 66.2,278.96" /></g><g
         transform="scale(1.28119)"
         id="g74"><path
           id="path76"
           style="fill:#3f403e;fill-opacity:1;fill-rule:nonzero;stroke:none"
           d="m 16142.7,8275.34 24.1,-138 133.2,48.11 -108.7,-89.9 108.7,-89.87 -133.2,48.47 -24.1,-138.38 -24,138.38 -132.9,-48.47 108.8,89.87 -108.8,89.9 132.9,-48.11 24,138" /></g><g
         transform="scale(1.33556)"
         id="g78"><path
           id="path80"
           style="fill:#3f403e;fill-opacity:1;fill-rule:nonzero;stroke:none"
           d="m 16098.5,5975.33 24.8,-187.94 176.7,72.41 -151.5,-115.23 151.5,-115.16 -176.7,72.4 -24.8,-187.64 -24.8,187.64 -176.7,-72.4 151.6,115.16 -151.6,115.23 176.7,-72.41 24.8,187.94" /></g><g
         transform="scale(1.30983)"
         id="g82"><path
           id="path84"
           style="fill:#3f403e;fill-opacity:1;fill-rule:nonzero;stroke:none"
           d="m 16045.7,7138.84 c 254.3,-107.49 254.3,-9.62 0,-117.11 -108.7,-252.09 -9.7,-252.09 -118.4,0 -253.9,107.49 -253.9,9.62 0,117.11 108.7,252.1 9.7,252.1 118.4,0 v 0" /></g><g
         transform="scale(1.24291)"
         id="g86"><path
           id="path88"
           style="fill:#3f403e;fill-opacity:1;fill-rule:nonzero;stroke:none"
           d="m 16006.1,7513.47 c -37.6,97.68 -58.7,167.91 -67.5,221.18 -53.4,8.28 -124.6,29.6 -223.1,66.53 v 3.63 c 98.5,36.92 169.7,58.33 223.1,66.61 8.8,53.18 29.9,123.42 67.5,221.18 h 3.3 c 37.6,-97.76 59.1,-168 67.5,-221.18 53.7,-8.28 124.5,-29.69 223.1,-66.61 v -3.63 c -98.6,-36.93 -169.4,-58.25 -223.1,-66.53 -8.4,-53.27 -29.9,-123.5 -67.5,-221.18 h -3.3" /></g><g
         transform="scale(1.28587)"
         id="g90"><path
           id="path92"
           style="fill:#3f403e;fill-opacity:1;fill-rule:nonzero;stroke:none"
           d="m 16300,5404.3 c -126.3,-58.4 -117.8,-49.69 -176.8,-175.29 -58.5,125.6 -50,116.89 -176.4,175.29 126.4,58.4 117.9,50 176.4,175.29 59,-125.29 50.5,-116.89 176.8,-175.29 v 0" /></g><g
         transform="scale(1.192)"
         id="g94"><path
           id="path96"
           style="fill:#3f403e;fill-opacity:1;fill-rule:nonzero;stroke:none"
           d="m 16293.9,7342.95 c -123.3,-24.91 -150.8,-52.01 -175.9,-174.33 -1.1,-5.7 -9.5,-5.7 -10.6,0 -25.2,122.32 -52.6,149.42 -175.9,174.33 -5.7,1.18 -5.7,9.48 0,10.57 123.3,24.92 150.7,52.1 175.9,174.42 1.1,6.04 9.5,6.04 10.6,0 25.1,-122.32 52.6,-149.5 175.9,-174.42 6.1,-1.09 6.1,-9.39 0,-10.57 v 0" /></g><g
         transform="scale(1.29048)"
         id="g98"><path
           id="path100"
           style="fill:#3f403e;fill-opacity:1;fill-rule:nonzero;stroke:none"
           d="m 16295.8,8709.37 c -86.9,-17.78 -106.1,-36.95 -123.7,-123.06 -1.1,-4.19 -6.7,-4.19 -7.8,0 -17.6,86.11 -36.9,105.28 -124.1,123.06 -3.9,0.7 -3.9,6.28 0,7.32 87.2,17.43 106.5,36.6 124.1,123.06 1.1,3.83 6.7,3.83 7.8,0 17.6,-86.46 36.8,-105.63 123.7,-123.06 4.2,-1.04 4.2,-6.62 0,-7.32 v 0" /></g><g
         transform="scale(1.23799)"
         id="g102"><path
           id="path104"
           style="fill:#3f403e;fill-opacity:1;fill-rule:nonzero;stroke:none"
           d="m 16300,9345.42 c -77,-35.61 -71.9,-30.16 -107.4,-106.47 -36,76.31 -30.8,70.86 -107.8,106.47 77,35.61 71.8,30.53 107.8,106.84 35.5,-76.31 30.4,-71.23 107.4,-106.84 v 0" /></g><g
         transform="scale(1.27362)"
         id="g106"><path
           id="path108"
           style="fill:#3f403e;fill-opacity:1;fill-rule:nonzero;stroke:none"
           d="m 16297.1,9674.91 c -62.3,-12.71 -76.2,-26.49 -88.6,-88.3 -0.8,-2.83 -5.1,-2.83 -5.4,0 -12.9,61.81 -26.8,75.59 -89.1,88.3 -2.8,0.36 -2.8,4.6 0,5.3 62.3,12.37 76.2,26.14 89.1,87.96 0.3,2.83 4.6,2.83 5.4,0 12.4,-61.82 26.3,-75.59 88.6,-87.96 2.9,-0.7 2.9,-4.94 0,-5.3 v 0" /></g><g
         transform="scale(1.84099)"
         id="g110"><path
           id="path112"
           style="fill:#3f403e;fill-opacity:1;fill-rule:nonzero;stroke:none"
           d="m 16296,8784.58 c -85.2,-17.1 -104.2,-36.17 -121.5,-120.47 -0.7,-3.91 -6.4,-3.91 -7.4,0 -17.2,84.3 -36.2,103.37 -121.5,120.47 -3.9,0.74 -3.9,6.35 0,7.33 85.3,17.11 104.3,35.92 121.5,120.47 1,3.92 6.7,3.92 7.4,0 17.3,-84.55 36.3,-103.36 121.5,-120.47 4,-0.98 4,-6.59 0,-7.33 v 0" /></g><g
         transform="scale(1.76763)"
         id="g114"><path
           id="path116"
           style="fill:#3f403e;fill-opacity:1;fill-rule:nonzero;stroke:none"
           d="m 16300,9410.26 c -75.2,-34.61 -70.1,-29.52 -105.2,-104.35 -35.2,74.83 -30.1,69.74 -105.3,104.35 75.2,34.87 70.1,29.78 105.3,104.61 35.1,-74.83 30,-69.74 105.2,-104.61 v 0" /></g><g
         transform="scale(1.81744)"
         id="g118"><path
           id="path120"
           style="fill:#3f403e;fill-opacity:1;fill-rule:nonzero;stroke:none"
           d="m 16297,9730.88 c -60.9,-12.38 -74.4,-25.74 -86.9,-86.14 -0.5,-2.97 -4.7,-2.97 -5.2,0 -12.5,60.4 -26,73.76 -86.9,86.14 -3,0.49 -3,4.7 0,5.2 60.9,12.37 74.4,25.74 86.9,86.14 0.5,2.97 4.7,2.97 5.2,0 12.5,-60.4 26,-73.77 86.9,-86.14 3,-0.5 3,-4.71 0,-5.2 v 0" /></g><g
         transform="scale(1.82739)"
         id="g122"><path
           id="path124"
           style="fill:#3f403e;fill-opacity:1;fill-rule:nonzero;stroke:none"
           d="m 15955.8,8411.12 c -162.8,0 -295.2,-131.09 -295.2,-292.22 0,-161.27 132.4,-292.46 295.2,-292.46 162.6,0 294.9,131.19 294.9,292.46 0,161.13 -132.3,292.22 -294.9,292.22 z m 0,-633.92 c -189.9,0 -344.4,153.29 -344.4,341.7 0,188.29 154.5,341.47 344.4,341.47 189.8,0 344.2,-153.18 344.2,-341.47 0,-188.41 -154.4,-341.7 -344.2,-341.7" /></g><g
         transform="scale(1.81311)"
         id="g126"><path
           id="path128"
           style="fill:#3f403e;fill-opacity:1;fill-rule:nonzero;stroke:none"
           d="m 16081.5,8350.09 c -93.3,0 -169.2,-75.02 -169.2,-167.23 0,-92.35 75.9,-167.48 169.2,-167.48 93.1,0 168.9,75.13 168.9,167.48 0,92.21 -75.8,167.23 -168.9,167.23 z m 0,-384.34 c -120.6,0 -218.8,97.39 -218.8,217.11 0,119.57 98.2,216.86 218.8,216.86 120.5,0 218.5,-97.29 218.5,-216.86 0,-119.72 -98,-217.11 -218.5,-217.11" /></g><g
         transform="scale(1.52015)"
         id="g130"><path
           id="path132"
           style="fill:#3f403e;fill-opacity:1;fill-rule:nonzero;stroke:none"
           d="m 16296.4,6726.95 c -73.7,-15.06 -90.1,-31.38 -105.1,-104.46 -0.8,-3.55 -5.6,-3.55 -6.5,0 -14.9,73.08 -31.4,89.4 -105.4,104.46 -3.3,0.6 -3.3,5.33 0,6.25 74,14.8 90.5,31.05 105.4,104.45 0.9,3.25 5.7,3.25 6.5,0 15,-73.4 31.4,-89.65 105.1,-104.45 3.6,-0.92 3.6,-5.65 0,-6.25 v 0" /></g><g
         transform="scale(1.47594)"
         id="g134"><path
           id="path136"
           style="fill:#3f403e;fill-opacity:1;fill-rule:nonzero;stroke:none"
           d="m 16300,7134.3 c -64.6,-29.87 -60.2,-25.29 -90,-89.31 -30.2,64.02 -25.9,59.44 -90.4,89.31 64.5,29.87 60.2,25.61 90.4,89.62 29.8,-64.01 25.4,-59.75 90,-89.62 v 0" /></g><g
         transform="scale(1.55941)"
         id="g138"><path
           id="path140"
           style="fill:#3f403e;fill-opacity:1;fill-rule:nonzero;stroke:none"
           d="m 16297.7,6290.96 c -50.9,-10.38 -62.3,-21.67 -72.5,-72.14 -0.5,-2.31 -4.1,-2.31 -4.3,0 -10.5,50.47 -21.8,61.76 -72.8,72.14 -2.3,0.26 -2.3,3.72 0,4.3 51,10.13 62.3,21.35 72.8,71.82 0.2,2.31 3.8,2.31 4.3,0 10.2,-50.47 21.6,-61.69 72.5,-71.82 2.3,-0.58 2.3,-4.04 0,-4.3 v 0" /></g><g
         transform="scale(1.65659)"
         id="g142"><path
           id="path144"
           style="fill:#3f403e;fill-opacity:1;fill-rule:nonzero;stroke:none"
           d="m 16163.7,6356.45 c -17.4,45.32 -27.2,77.89 -31.3,102.56 -24.7,3.86 -57.7,13.77 -103.4,30.89 v 1.67 c 45.7,17.13 78.7,27.03 103.4,30.89 4.1,24.68 13.9,57.24 31.3,102.57 h 1.6 c 17.4,-45.33 27.4,-77.89 31.3,-102.57 24.9,-3.86 57.7,-13.76 103.4,-30.89 v -1.67 c -45.7,-17.12 -78.5,-27.03 -103.4,-30.89 -3.9,-24.67 -13.9,-57.24 -31.3,-102.56 h -1.6" /></g><g
         transform="scale(1.49085)"
         id="g146"><path
           id="path148"
           style="fill:#3f403e;fill-opacity:1;fill-rule:nonzero;stroke:none"
           d="m 16147.9,7454 c -19.4,50.58 -30.4,86.93 -34.9,114.47 -27.6,4.3 -64.5,15.36 -115.5,34.47 v 1.87 c 51,19.11 87.9,30.16 115.5,34.47 4.5,27.54 15.5,63.88 34.9,114.46 h 1.7 c 19.5,-50.58 30.6,-86.92 35,-114.46 27.7,-4.31 64.4,-15.36 115.4,-34.47 v -1.87 c -51,-19.11 -87.7,-30.17 -115.4,-34.47 -4.4,-27.54 -15.5,-63.89 -35,-114.47 h -1.7" /></g><g
         transform="scale(1.61662)"
         id="g150"><path
           id="path152"
           style="fill:#3f403e;fill-opacity:1;fill-rule:nonzero;stroke:none"
           d="m 16300,6361.3 c -50.9,-23.51 -47.4,-20.04 -71.2,-70.64 -23.6,50.6 -20.2,47.13 -71.1,70.64 50.9,23.57 47.5,20.16 71.1,70.63 23.8,-50.47 20.3,-47.06 71.2,-70.63 v 0" /></g><g
         transform="scale(1.62555)"
         id="g154"><path
           id="path156"
           style="fill:#3f403e;fill-opacity:1;fill-rule:nonzero;stroke:none"
           d="m 16296.6,7005.47 c -68.9,-14.11 -84.3,-29.33 -98.2,-97.69 -0.8,-3.32 -5.3,-3.32 -6.2,0 -13.9,68.36 -29.3,83.58 -98.5,97.69 -3,0.56 -3,4.99 0,5.82 69.2,13.84 84.6,29.06 98.5,97.69 0.9,3.05 5.4,3.05 6.2,0 13.9,-68.63 29.3,-83.85 98.2,-97.69 3.4,-0.83 3.4,-5.26 0,-5.82 v 0" /></g><g
         transform="scale(1.50208)"
         id="g158"><path
           id="path160"
           style="fill:#3f403e;fill-opacity:1;fill-rule:nonzero;stroke:none"
           d="m 16300,7255.73 c -55.5,-25.67 -51.8,-21.74 -77.4,-76.73 -25.9,54.99 -22.2,51.06 -77.7,76.73 55.5,25.66 51.8,21.99 77.7,76.98 25.6,-54.99 21.9,-51.32 77.4,-76.98 v 0" /></g><g
         transform="scale(1.59912)"
         id="g162"><path
           id="path164"
           style="fill:#3f403e;fill-opacity:1;fill-rule:nonzero;stroke:none"
           d="m 15691.2,6949.32 c -91.1,0 -165.3,-63.94 -165.3,-142.54 0,-152.84 179.3,-316.05 358.9,-474.6 179.6,158.58 358.9,321.83 358.9,474.6 0,78.6 -74.1,142.54 -165.4,142.54 -78.2,0 -120.8,-28.71 -169,-113.78 -5,-8.81 -14.3,-14.25 -24.5,-14.26 v 0 c -10.1,0 -19.5,5.45 -24.5,14.26 -48.2,85.07 -90.9,113.78 -169.1,113.78 z m 193.6,-682.8 c -6.6,0 -13.3,2.38 -18.6,7.07 -195,171.91 -396.6,349.67 -396.6,533.19 0,109.63 99.4,198.81 221.6,198.81 95.5,0 150,-39.86 193.6,-102.93 43.6,63.07 98.1,102.93 193.5,102.93 122.3,0 221.7,-89.18 221.7,-198.81 0,-183.45 -201.6,-361.28 -396.6,-533.19 -5.3,-4.69 -11.9,-7.07 -18.6,-7.07" /></g><g
         transform="scale(1.10723)"
         id="g166"><path
           id="path168"
           style="fill:#3f403e;fill-opacity:1;fill-rule:nonzero;stroke:none"
           d="m 13449.4,12343.7 c -307.1,69.4 -699.7,207 -1046.7,410.4 329.2,-132.3 599,-176.3 880.1,-222.2 283.5,-46.3 576,-94.4 957,-235.2 -192.7,-30.2 -477.5,-24 -790.4,47 z m -699.3,426 c 122.1,-18.2 240.3,-27.3 354.6,-36.2 239.2,-18.4 465.1,-35.9 705.5,-132 93,-37.1 190.6,-93.3 284.9,-147.6 29.5,-17.1 59.3,-34.2 89.2,-50.9 -347.5,120.5 -622,165.6 -888.4,209.1 -328.1,53.5 -640.5,104.7 -1052,300.8 15.7,-5 31.3,-10 46.5,-14.9 162.1,-52.1 345.9,-111.2 459.7,-128.3 z m 874.4,2121.2 c 0.1,-37.1 3.6,-81.5 13.8,-133 59.1,-293.1 126.8,-514.7 186.5,-710.3 20.5,-66.9 39.7,-130.1 58.1,-194.1 64.8,-225.3 128.2,-491.3 153.5,-908.6 1.7,-30 3.9,-58.1 6.1,-85.1 0,-0.1 0,-0.2 0,-0.3 -84,252 -113.7,421.2 -142.5,585.3 -29.4,167.7 -57.2,326.2 -141.1,551.9 -7.8,21 -31.2,31.7 -52.3,23.9 -21,-7.8 -31.7,-31.2 -23.9,-52.2 81.4,-218.8 108.5,-373.7 137.3,-537.7 21,-120 44,-250.9 90.8,-418.6 -107.8,221.1 -217.5,498 -292,775.4 -94.6,352.5 -162,810.3 5.7,1103.4 z m 801.5,-974.1 c 11,65 14.3,138.7 11,212.8 56.6,-242.4 44,-455.1 30.6,-677.3 -1.9,-31.5 -3.8,-63.2 -5.5,-95 -12.3,-231.4 -14.9,-481 66.5,-792.4 -124.5,299.6 -148.6,613.1 -152.1,766.8 -5.4,235.8 20.3,411.4 49.5,585.1 z m 242.9,-1115.3 c -4.1,-152.3 -7.8,-288.4 -5.3,-400.6 -135.5,390.3 -134.6,683.8 -120.3,952.1 1.6,31.6 3.5,63 5.4,94.4 14.2,235.1 28.6,476.9 -46.8,756.2 144.7,-227.9 170.8,-589.3 174.1,-903.3 1.9,-170 -2.9,-344.7 -7.1,-498.8 z m -2938.5,1315.4 c 31.2,-26.4 65.4,-53.9 102.2,-80.1 255.3,-182.4 472.5,-277.5 682.4,-369.4 124.2,-54.3 241.3,-105.7 362.3,-173 125.5,-69.8 255.8,-159.9 393.8,-255.4 44.5,-30.7 89.3,-61.7 134.7,-92.5 -309.5,124.3 -718.5,308.6 -1001.3,502.2 -18.6,12.7 -43.8,8 -56.5,-10.5 -12.7,-18.5 -7.9,-43.8 10.6,-56.5 278.9,-190.9 676.6,-372.4 986.5,-498.2 -216.5,42.3 -430.8,92 -605.5,178.1 -338,166.8 -782.5,527.4 -1009.2,855.3 z m 390.5,836.9 c -23.2,57.3 -45.7,140.5 -69.6,228.5 -33.3,122.9 -69.8,257.7 -117.9,357.2 247.3,-101.2 445.8,-407.5 595.3,-638.1 89,-137.2 160.4,-247.4 226.1,-294.4 50.8,-141.8 106.8,-278.8 165.9,-406.7 -159.8,134.8 -421.2,393.9 -557.5,737.8 -8.3,20.9 -31.9,31.1 -52.8,22.8 -20.8,-8.3 -31,-31.9 -22.8,-52.7 200.1,-505 642.9,-824.8 714,-873.8 33.5,-64.9 67.6,-126.6 102,-184.3 -365.7,223.3 -810.2,677.2 -982.7,1103.7 z m 461.4,1014.4 c 33.2,-217.1 88.9,-376.8 146.8,-543.3 53.2,-152.2 108.1,-309.7 153.2,-527.1 4,-19.2 20.9,-32.4 39.8,-32.4 2.7,0 5.5,0.3 8.2,0.9 22,4.5 36.1,26 31.6,48 -46.3,222.6 -102,382.7 -156,537.4 -56.8,163.1 -108.2,310.4 -140.2,507.1 41,-95.2 89.9,-196.7 145.8,-271.4 318.8,-449 329.5,-813.3 340.8,-1198.9 6.4,-219.3 13,-444.3 78.5,-689.1 -337.3,516.3 -672.4,1467.7 -648.5,2168.8 z m 3243,-4063.5 c -319,43.5 -511.6,91.3 -736.3,159.1 -115.1,34.6 -222.4,77.2 -323.2,125.8 -29.2,108.6 -22.9,341.7 -15.7,609.7 4.3,154.8 9.1,330.3 7.2,501.9 -4.6,435.3 -53.1,958.8 -392.1,1144 -14.8,8.1 -33.1,6.2 -46,-4.8 -12.8,-11.1 -17.4,-28.9 -11.6,-44.8 46.3,-127.1 62.5,-322.8 38.2,-465.3 -29.8,-177.8 -56.1,-357.5 -50.5,-600.4 4.6,-201.9 43.5,-668.8 286.4,-1040.4 -32.5,19.6 -64.5,39.8 -95.5,60.8 -3.4,3.4 -7.4,6.2 -11.8,8.2 -127.7,87.3 -243,184.6 -348.3,287.6 8.8,75.7 3.6,143.2 -2.6,220.2 -2.1,26.4 -4.3,54 -6,83.4 -25.8,425.3 -90.4,696.5 -156.5,926.2 -18.6,64.7 -38,128.2 -58.5,195.5 -59.1,193.7 -126.1,413.4 -184.5,702.4 -20,100.3 -10.7,168 -5.2,208.4 3.5,26.1 5.8,43.3 -1.7,60 -5.6,12.3 -16.8,21.1 -30.2,23.4 -13.3,2.3 -26.9,-2.3 -36.3,-12.1 -289.9,-304.6 -216.7,-868.1 -104.2,-1287 78.4,-292.8 196.1,-585.8 310.5,-816 -5.8,7.2 -11.6,14.4 -17.3,21.6 -1.7,2.9 -4,5.5 -6.4,7.9 -121.9,152.9 -229.9,307.7 -330.7,452.4 -36.6,52.4 -71.5,102.4 -105.7,150.4 -0.4,1.1 -0.5,2.1 -1,3.2 -139.4,329.3 -148,621.9 -156.3,904.8 -11.1,380.8 -22.7,774.5 -356.3,1244.5 -75.4,100.6 -139.5,259.7 -186.4,375.8 -25.7,64 -43,106 -57.6,134 -0.1,0.1 -0.1,0.2 -0.1,0.2 -13.1,25 -24,38.9 -36.9,46.8 -11.3,6.9 -25.2,7.9 -37.2,2.7 -12.1,-5.2 -21,-15.9 -23.8,-28.8 -106.3,-493.9 43,-1108.3 151.7,-1456.4 -28.7,41.4 -59,88.2 -90,136 -176.7,272.7 -418.9,646.1 -746.7,702.1 -0.6,0.2 -1.2,0.3 -1.8,0.3 -5.6,0.8 -11.2,0.3 -16.5,-1.1 -5.2,-1.5 -10.2,-4.1 -14.8,-7.8 0,-0.1 0,-0.1 -0.1,-0.1 -2.2,-1.9 -4.3,-4 -6.1,-6.3 0,-0.1 0,-0.1 0,-0.1 -0.1,0 -0.1,0 -0.1,-0.1 0,0 0,0 0,0 -4.4,-5.7 -7.1,-12.5 -8,-19.4 -0.8,-5.7 -0.4,-11.3 1.2,-16.5 1.4,-5.1 3.8,-9.9 7.4,-14.3 0.4,-0.6 0.9,-1.1 1.3,-1.6 67.5,-77.3 116.7,-259.2 160.1,-419.6 24.6,-90.5 47.7,-175.9 72.7,-237.8 200,-494.4 752.6,-1024.4 1149,-1215.7 37.6,-54.6 75.1,-103.8 112.1,-146.9 39.8,-55.2 80.3,-113.3 123.2,-174.8 65.1,-93.4 134.9,-193.5 211.1,-295.9 -110.4,68.6 -218.2,143 -323.5,215.9 -139.8,96.6 -271.6,187.8 -400.6,259.5 -124.3,69.2 -243.2,121.3 -369.2,176.4 -206.1,90.3 -419.3,183.6 -667.9,361.1 -72.4,51.8 -136.4,110.3 -183.1,153 -60.4,55.1 -83.4,76 -110.3,76 -0.3,0 -0.6,0 -0.9,0 -13.5,-0.2 -25.9,-7.1 -33.3,-18.3 -7.4,-11.3 -8.7,-25.5 -3.6,-37.9 159.6,-383.4 736.9,-880.6 1155.2,-1087 222.1,-109.5 498.4,-161.4 765.6,-211.6 108.8,-20.4 211.6,-39.8 307.1,-62.4 83.1,-102.8 173.4,-205.5 272.7,-304.2 0.5,-0.7 1.1,-1.5 1.6,-2.2 2.7,-3.7 6.1,-6.5 9.6,-9 27.8,-27.4 56.5,-54.4 85.8,-81 -3.5,2 -7,4 -10.5,6 -96.7,55.8 -196.8,113.5 -295.2,152.7 -251.9,100.7 -483.8,118.6 -729.4,137.6 -112.9,8.7 -229.7,17.7 -348.9,35.5 -107.2,16.1 -287.6,74.1 -446.9,125.3 -311.5,100.1 -363,112.5 -385.9,61.6 -7.1,-16 -3.2,-34.8 9.7,-46.6 416.8,-380.7 1044.3,-624.7 1492.5,-726 210.5,-47.7 401.8,-67.3 564.5,-67.3 206.6,0 366.7,31.7 460,77.6 79.4,-53 163.2,-102.2 252,-146.7 4,-2.9 8.4,-4.9 13,-6.2 107.3,-52.9 221.8,-98.9 344.5,-135.8 228.6,-69 424.5,-117.6 748.8,-161.8 1.9,-0.3 3.7,-0.4 5.6,-0.4 20,0 37.4,14.8 40.2,35.1 3,22.3 -12.5,42.7 -34.8,45.8" /></g><g
         transform="scale(1.10757)"
         id="g170"><path
           id="path172"
           style="fill:#3f403e;fill-opacity:1;fill-rule:nonzero;stroke:none"
           d="m 9484.54,15181.4 c -9.93,-10.6 -19.23,-20.5 -27.26,-29.4 -39.73,-43.8 -81.35,-87.5 -125.24,-133.7 -138.68,-145.7 -295.78,-310.9 -425.54,-516.5 -69.95,-110.9 -129.68,-216.4 -179.34,-316.5 125.29,589 340.7,1206.9 710.43,1541.3 24.47,-17.7 44.33,-27.5 59.59,-34.9 29.71,-14.6 37.74,-18.5 54.9,-100.1 9.39,-44.8 32.41,-71.6 52.72,-95.2 9.85,-11.5 19.15,-22.3 26.82,-35.2 45.14,-75.1 -79.9,-208.3 -147.08,-279.8 z M 7692.6,14240 c -69.22,0 -132.72,-3.5 -186.71,-8.2 -210.55,-18.3 -413.47,-71.6 -547.76,-106.9 -43.48,-11.4 -81.03,-21.3 -108.07,-27.1 l -5.18,-1.1 c -45.74,-9.7 -52.78,-7.4 -61.33,6.2 -10.08,15.6 -17.56,36.8 -24.79,57.3 -7.28,20.6 -14.15,40.1 -23.88,54.7 -5.09,7.9 -9.85,14.8 -14.21,21 -2.75,4 -5.14,7.4 -7.25,10.6 265.09,92.6 746.76,89.3 1156.27,-14.6 -61.47,5.8 -121.16,8.1 -177.09,8.1 z m -999.45,336.1 4.52,11.7 c 17.91,46.5 24.6,63.9 28.39,125.3 4.23,65.6 19.2,95.3 57.43,113.5 20.03,9.6 35.79,22 47.39,36.6 420.99,-78.1 1042.45,-338.7 1430.46,-686.9 -203.84,101.1 -479.62,174.2 -776.62,204.2 -300.62,30.3 -583.83,11.4 -776.34,-50.2 3.47,31.6 2.67,65.1 -12.81,100.2 -25.73,57.5 -26.15,83.4 -2.42,145.6 z m 135.72,608.2 c 8.58,13.6 19.16,25.9 30.34,38.9 4.34,5 8.81,10.3 13.27,15.7 375.33,-133.2 945.9,-511.6 1318.84,-901.6 -398.2,306.1 -949.71,530.6 -1338.45,604.4 -3.32,30.5 -15.76,63.1 -27.82,94.7 -7.78,20.3 -15.82,41.4 -17.89,54.2 -4.62,28.6 3.9,65.4 21.71,93.7 z m 95.09,149.7 c 13.04,43.6 18.44,61.7 52.94,77.1 21.35,9.7 92.52,45 111.65,88.4 8.52,19.3 12.69,41.4 16.72,62.7 3.62,19.2 7.38,39.1 13.21,49.8 9.75,17.7 25.65,38.1 69.51,55.9 18.58,7.6 34.2,16.8 51.34,30.8 459.97,-221.8 885.24,-808.8 1103.99,-1295.7 34.63,-77.4 64.57,-152.7 90.15,-224.1 -349.78,466.7 -1056.06,961.5 -1517.61,1130.6 2.2,5.6 4.22,11.4 6.05,17.6 z m 456.58,488.8 c 18.68,3.3 41.59,-4.5 68.13,-13.6 23.56,-8 50.26,-17.1 81,-20.9 30.12,-3.5 54.9,-5.1 74.83,-6.3 71,-4.3 90.09,-5.4 180.81,-89.9 145.23,-135.1 309.1,-383.6 389.84,-549.2 49.49,-113.9 156.67,-400.5 247.19,-717.7 -1.64,3.7 -3.24,7.3 -4.89,11 -221.08,492.1 -649.83,1084.8 -1119.03,1323.8 2.61,3.5 5.11,6.9 7.52,10.1 20.92,28.2 33.54,45.3 74.6,52.7 z m 795.09,345.2 c 25.74,17.7 53.25,21.4 73.33,9.7 33.22,-19.2 70.94,-24.3 111.99,-15 29.01,6.4 52.72,19.7 73.66,31.3 12.05,6.7 23.42,13.1 32.67,16.1 14.46,4.7 38.97,-0.2 55.08,-11.4 16.01,-10.8 29.79,-19 42.09,-25.2 -106.39,-311.5 -72.53,-831.7 -36.66,-1381.3 12.27,-188.1 24.66,-379 31.37,-563.5 -103.91,425.7 -262.12,837.3 -309.23,946 l -12.76,37 c -83.34,241.1 -278.51,805.7 -61.54,956.3 z m 585.71,-85.6 c 10.62,-13.5 21.59,-27.4 33.78,-39.8 20.16,-20.5 43.18,-38.5 68.3,-53.4 17.72,-10.7 35.81,-18.7 54.15,-24.8 -192.75,-372.1 -244.78,-940.3 -287.95,-1502.8 -6.19,111.8 -13.49,224.3 -20.77,335.9 -35.62,545.7 -69.3,1062.2 34.61,1356.4 1.33,-0.1 2.63,-0.1 3.97,-0.1 0.12,0 0.23,0 0.33,0 11.99,0.1 21.54,0 36.52,-4.5 32.09,-9.9 53.93,-37.6 77.06,-66.9 z m 421.82,-144.2 c 72.23,-9.2 131.82,-31.8 159.27,-60.1 17.52,-18.3 24.92,-39.8 32.68,-62.6 2.98,-9 6.14,-18 9.94,-26.9 -327.93,-295.6 -538.36,-799.4 -673.02,-1314.6 43.12,559.2 96.44,1121.2 288.7,1473.8 27.54,-2.7 55.13,-3.3 82.39,-3.9 32.78,-0.6 66.73,-1.4 100.04,-5.7 z m 518.25,-435.4 c -11.1,18.8 -23.83,33.6 -35.03,46.6 -17.24,20 -29.7,34.5 -34.85,58.9 -23.02,109.5 -46.5,130.8 -98.68,156.3 -17.52,8.6 -37.29,18.3 -63.38,39.7 -6.78,6 -11.74,20.6 -17.52,37.4 -9.3,27.3 -20.86,61.3 -50.92,92.8 -55.71,57.4 -153.94,77.4 -207.49,84.3 -37.55,4.9 -73.76,5.6 -108.7,6.4 -68.65,1.4 -127.95,2.6 -179.77,33.7 -19.23,11.5 -36.74,25.2 -52.09,40.8 -9.06,9.1 -18.18,20.7 -27.86,33 -27.01,34.2 -60.63,76.8 -117.1,94.3 -25.83,7.8 -44.09,8 -58.8,8 -0.95,0 -1.82,0.1 -2.67,0 -19.13,0 -33.69,0.6 -78.3,30.8 -36.92,25.6 -87.71,34.2 -126.14,21.5 -16.61,-5.4 -32.09,-14 -47.07,-22.3 -17.64,-9.9 -34.29,-19.2 -51.87,-23.1 -21.39,-4.8 -37.86,-2.9 -53.53,6.2 -48.09,27.7 -107.9,22.8 -160.2,-13.2 -192.56,-133.8 -146.05,-462.1 -65.93,-748.2 -70.23,99.9 -148.13,195.3 -222.85,264.8 -106.62,99.3 -142.67,106.2 -231.23,111.6 -19.9,1.2 -42.45,2.6 -70.07,5.8 -22.17,2.8 -43.67,10.1 -64.47,17.2 -34.08,11.6 -69.32,23.6 -108.7,16.6 -72.82,-13.1 -100.82,-50.9 -125.53,-84.3 -8.4,-11.3 -16.32,-22 -26.13,-32 -27.57,-28.1 -40.88,-36.6 -57.17,-43.2 -52.09,-21.2 -87.05,-50.4 -110.12,-92.2 -12.05,-22.1 -17,-48.3 -21.78,-73.7 -3.2,-16.8 -6.48,-34.3 -10.97,-44.5 -4.98,-8.6 -34.53,-31 -71.03,-47.7 -68.22,-30.4 -82.36,-77.8 -97.33,-127.9 l -2.07,-6.9 c -9.14,-30.9 -26.41,-50.9 -46.39,-74.1 -12.64,-14.7 -25.7,-29.8 -37.55,-48.6 -28.59,-45.5 -40.98,-101.5 -33.15,-150 3.42,-21 12.54,-44.9 22.2,-70.2 9.75,-25.6 20.82,-54.5 22.96,-74.6 0.28,-2.6 0.55,-5.9 -0.19,-9.6 -0.37,-0.9 -0.57,-1.9 -0.87,-2.9 -2.24,-6.3 -8.02,-13.4 -22.65,-20.5 -83.38,-39.6 -99.07,-114 -103.44,-181.6 -3.02,-49 -6.08,-56.9 -23.11,-101.2 l -4.6,-11.9 c -31.33,-82 -30.36,-130.6 4.07,-207.6 9.79,-22.2 8.68,-46.2 4,-75.6 -3.1,-19.5 -4.14,-35.6 -3.61,-49.4 -0.16,-3.4 0.02,-6.9 0.76,-10.3 3.24,-30 15.15,-49.2 31.5,-72.7 3.82,-5.5 8.04,-11.5 12.91,-19.1 4.48,-6.7 9.95,-22.2 15.26,-37.2 8.37,-23.8 17.89,-50.8 32.91,-74 40.62,-64.5 106.99,-50.4 146.69,-41.9 l 5.22,1.1 c 29.02,6.2 67.38,16.3 111.79,28 131.61,34.5 330.5,86.7 534.17,104.4 244.76,21.5 694.63,17.9 956.19,-246.8 73.72,-74.4 87.39,-173.6 80.55,-279.7 -0.12,-1.5 -0.21,-3 -0.32,-4.5 -0.03,-0.2 -0.03,-0.4 -0.05,-0.6 0,0 0,0 0,-0.1 -0.16,-2.2 -0.32,-4.3 -0.47,-6.5 -4.07,-52.5 -12.75,-106.4 -21.35,-159.8 -2.68,-16.7 -5.34,-33.2 -7.82,-49.5 -34.98,-229.7 -131.6,-559.7 -393.22,-827 -15.69,-16 -15.42,-41.7 0.62,-57.4 7.9,-7.8 18.15,-11.6 28.41,-11.6 10.54,0 21.07,4 29.02,12.2 276.75,282.7 378.69,630 415.49,871.6 2.44,16 5.06,32.3 7.71,48.8 8.11,50.4 16.53,102.7 21.16,155 0.32,1.7 0.52,3.4 0.62,5.2 0.16,3 0.34,6 0.54,9 0.13,1.6 0.24,3.1 0.35,4.7 0.15,1.6 0.26,3.3 0.41,4.9 0.89,11.3 2.11,22.8 3.51,34.4 1.7,12.2 3.52,24.6 5.29,37 33.95,210.8 146.37,468.5 335.62,768.3 125.44,198.9 272.97,353.9 415.71,503.9 44.25,46.6 86.14,90.6 126.5,135.1 7.85,8.6 16.7,18.1 26.36,28.4 87.67,93.3 234.3,249.5 157.64,377" /></g><g
         transform="scale(1.59655)"
         id="g174"><path
           id="path176"
           style="fill:#3f403e;fill-opacity:1;fill-rule:nonzero;stroke:none"
           d="m 16116.9,9434.5 c -38.1,-33.2 -80.8,-43.28 -126.9,-29.98 -13.2,3.86 -24.3,11.61 -33.6,20.26 19.8,21.07 41.1,42.85 64.1,66.28 57.6,58.82 127.2,129.82 206.2,225.4 -2.7,-111.3 -45.6,-226.11 -109.8,-281.96 z m -216.8,183.16 c 11.2,21.54 28.5,41.66 50.2,59.7 -9.4,-63.88 -8.3,-120.64 3,-174.36 -11.5,-11.82 -22.7,-23.37 -33.4,-34.75 -38.2,51.03 -45,101.23 -19.8,149.41 z m 102.3,-64.5 c -5.1,49.7 -0.8,103.84 13,165.95 52.6,26.11 115.4,42.69 177.8,45.3 -71.8,-87.88 -136,-155.18 -190.8,-211.25 z m -481.3,511.24 c -82.5,86.2 -137.8,144.4 -110.3,254.4 10.1,-0.9 20.1,-1.4 30.3,-1.4 25.5,0 51.5,2.9 77.5,9 36,8.7 69.5,23 99.7,41.8 74.8,-86.2 50.8,-166.9 18,-277 -4.9,-16.3 -9.9,-32.9 -14.7,-50.3 l -0.9,-3.3 c -6,-21.8 -11.9,-43 -16.5,-64.48 -15.1,18.42 -31,35.68 -46.7,52.68 -12.3,13.3 -24.5,26.1 -36.4,38.6 z m -218.2,-25.4 c 1.8,18.5 1.6,41.7 -2.6,70.5 -2.5,17.1 -7,35.9 -11.9,55.7 -15.2,63.5 -32.6,135.4 4.7,187.1 19.7,-9.9 40.5,-17.8 62.1,-23.6 -17.7,-74.8 -3.4,-132.7 26.4,-183.5 -12.9,-49.6 -48.7,-85.6 -78.7,-106.2 z m -119.4,530.9 c -44.9,168.7 -92.7,242.5 -147.7,293 31.1,3.8 61.2,13.2 90.6,22.4 50.6,15.7 98.8,30.7 153.3,20.7 -75.9,-70.8 -105.1,-159.9 -81.3,-258.4 6,-24.7 11.2,-46.4 15.8,-64.9 4.5,-18.6 8.2,-34.1 11.2,-46.7 11.4,-46.8 37.1,-89 73.5,-122.5 -56.2,34.3 -99.1,88.9 -115.4,156.4 z m -287.2,415.3 c 0.2,29.9 34.8,68.4 100.5,84 l 86.5,20.7 -8.1,-161.3 c -35.4,-9.9 -68,-15.6 -101.4,-7.3 -9.6,2.5 -18.4,5.3 -26.4,8.6 -0.2,0.1 -0.4,0.2 -0.6,0.4 v -0.2 c -32.2,13.3 -50.6,32.9 -50.5,55.1 z m 253,179.3 c 5.2,8.6 12.4,14.4 20.3,16.3 14.6,3.5 26.4,4.3 38.7,4.3 5.4,0 10.9,-0.1 16.8,-0.3 21.1,-0.6 44.9,-1.3 79.3,5 35.7,6.4 63.3,21.2 87.6,34.3 18.5,9.9 34.4,18.4 50.3,21.5 l 1.3,0.3 c 10.3,2.5 19.3,-2.6 24.9,-7.3 10.1,-8.4 18,-22.2 21.8,-38.2 4.5,-18 2.3,-36.4 -5.6,-49.3 -3.2,-5.3 -8.9,-12 -17.6,-14.1 -24.3,-5.8 -49.6,-4.7 -76.2,-3.6 -43.9,1.8 -93.6,3.9 -143.3,-27 -7.9,-4.9 -15.7,-10.3 -23.1,-15.4 -10.2,-7.1 -25.6,-17.8 -31.4,-19.1 -11.3,-2.7 -21.7,3.8 -26.9,7.9 -10.9,8.7 -19.2,22.5 -23,38.2 -4,16.5 -1.8,33.5 6.1,46.5 z m 493.8,58.6 c 65.1,15.5 113.9,-3.4 128.3,-30 12.1,-22.2 1.6,-51.5 -28.7,-80.3 -22.1,-21.1 -61.2,-37.2 -105.8,-51.4 l -79.9,141.3 z m -178.4,-271.7 c 31.2,11.9 68.5,22.1 107.8,32.9 45.7,12.4 92.3,25.2 132.2,41.7 -25.5,-66.3 -35.8,-146.9 -5.7,-300.6 l 2.6,-13.1 c 10.9,-54.6 17.5,-87.6 2.1,-143.1 -17.4,-64 -59.1,-118.1 -115,-153.1 -67.1,-28.6 -138,-27.4 -200,3.4 -54.8,27.2 -95.4,75.7 -108.5,129.7 -3,12.6 -6.7,28.1 -11.2,46.8 -4.5,18.5 -9.8,40.1 -15.8,64.9 -40.2,166.4 115.2,253.4 211.5,290.5 z m -328,80.2 c 15.8,-11 33.6,-16.7 51.1,-16.7 6.1,0 12.3,0.7 18.2,2.1 16.2,3.7 32.9,15.4 50.6,27.7 6.9,4.7 13.9,9.6 20.8,13.9 34.8,21.6 70.2,20.2 111.1,18.5 29.4,-1.3 59.8,-2.5 91.7,5.1 21.6,5.1 40.2,19.2 52.6,39.5 1,1.5 1.7,3.2 2.6,4.7 l 45.9,-81.3 c -7.9,-2.2 -15.8,-4.3 -23.6,-6.5 -39,-10.6 -79.3,-21.7 -113.2,-34.6 -41.4,-15.9 -78.1,-34.5 -109.8,-55.2 -77.3,29.2 -143.3,15 -202.2,-2.7 z m 660.8,-745.4 c 4.9,-19.9 9.4,-38.6 15,-55 9.3,-27.2 19.7,-47.9 29.6,-63.5 -36.2,5 -84.5,20.9 -118.7,59 3.4,58.7 -10.3,116.7 -60.1,175.4 16.5,14.8 31.4,31.2 44.5,48.9 56.8,-29.7 74.3,-101.5 89.7,-164.8 z m 481.1,-491.07 c -1.8,12.85 -12.2,22.76 -25.1,24.05 -163.3,16.1 -344.4,-62.58 -403.3,-175.42 -36.7,-70.09 -25.5,-147.08 31.2,-217.71 -46.2,-52.82 -83.5,-105.81 -111.5,-172.3 -18.6,199.75 -55.5,417.05 -117.5,665.53 3.7,33.93 12.5,66.63 22.6,103.42 l 0.9,3.2 c 4.7,16.9 9.6,33.2 14.3,49.2 8.6,28.6 17,56.9 23.3,84.9 49.9,-37.1 110.2,-50.2 153.4,-50.2 19.3,0 35.1,2.6 45,6.8 7.9,3.4 13.8,10.1 16.1,18.4 4.9,17.8 -7.8,28.8 -12.6,32.9 -8.4,7.3 -30.9,26.7 -49.6,81.5 -4.7,14 -9,31.5 -13.5,50.1 -16.2,66.6 -38.5,157.3 -115.3,199.6 8.7,17.6 15.8,36 21,55.2 19,68.3 10.1,112.8 -1.2,169.1 l -2.5,12.9 c -38.6,197.1 -6.6,257.7 37.7,341.6 2,3.9 4.1,7.8 6.1,11.7 35.9,42.8 44.6,90.3 22.9,130.3 -29.8,54.9 -106.5,78.1 -190.9,58 l -101.6,-24 c -6.7,10.8 -14.7,20.4 -24,28 -21.8,18.2 -47.8,24.9 -73.4,18.9 -24.2,-4.7 -45.3,-16.1 -65.7,-27.1 -21.6,-11.6 -44.1,-23.6 -71,-28.5 -28.7,-5.2 -48.4,-4.7 -67.6,-4.1 -20.6,0.6 -42,1.3 -70.3,-5.5 -22.6,-5.4 -42.2,-20.2 -55.3,-41.8 -8.4,-13.6 -13.4,-29.1 -15.4,-45.3 l -102.1,-24.5 c -85.7,-20.3 -143.4,-76 -143.8,-138.5 -0.2,-44.7 28.9,-82.1 79.6,-104.9 3.7,-2.6 7.3,-5.2 10.9,-7.7 81.4,-57 140.2,-98.2 198.5,-316.9 17.5,-72.2 59.8,-132.4 116.3,-174.2 -49.4,-72.2 -27.6,-163.1 -11.5,-229.8 4.4,-18.6 8.7,-36.2 10.9,-50.8 8.3,-57.3 -2.8,-84.6 -7,-94.9 -2.4,-6 -8,-19.97 2.4,-33.35 5.4,-6.82 13.6,-10.78 22.2,-10.78 0.6,0 1.1,0.02 1.7,0.05 34.8,2.05 117.3,47.38 157,128.18 18.4,-22.1 38.8,-43.4 59.5,-65 11.6,-12.2 23.6,-24.7 35.7,-37.81 31,-33.64 60.3,-65.42 81.9,-103.79 1.8,-3.14 4.2,-5.64 6.9,-7.82 182.5,-748.86 132.8,-1211.33 42.4,-1779.28 l 55.7,-8.85 c 54.5,342.24 94.3,646.65 78.6,997.23 22,136.57 67.2,216.61 137,297.85 14.4,-13.21 32.8,-25.84 55.7,-32.53 18.4,-5.32 36.6,-7.95 54.5,-7.95 44.8,0 87.4,16.71 125.1,49.55 92.5,80.45 146.1,253.76 124.7,403.13" /></g><g
         transform="scale(1.10833)"
         id="g178"><path
           id="path180"
           style="fill:#3f403e;fill-opacity:1;fill-rule:nonzero;stroke:none"
           d="m 4629.56,14601.6 c -87.45,-86.7 -186.74,-184.8 -381.32,-232.8 -105.93,-25.9 -215.63,-28.2 -321.73,-30.4 -115.47,-2.4 -234.9,-4.8 -350,-37.8 -10.47,-3 -20.78,-6.1 -30.99,-9.4 141.27,67.6 265.88,94.8 442.49,133.3 49.9,10.8 101.5,22 159.52,35.5 278.22,64.5 439.14,306.9 500.55,420 19.88,-29.9 33.96,-63.1 39.8,-96.5 11.51,-65.6 -8.66,-128.5 -58.32,-181.9 z m -1969.48,319 c -61.06,113 -120.45,248.1 -141.36,470.1 -24.35,426.7 133.06,702.4 245.5,784.4 41.74,26 81.11,28.7 124.35,23 -109.83,-188.1 -152.42,-406.3 -177.07,-580 -47.66,-341.8 28.04,-584.2 123.88,-891.3 20.21,-64.4 37.86,-123.2 53.32,-177.2 -16.16,25.6 -33.36,52 -51.67,79.9 -52.12,79.7 -111.19,170 -176.95,291.1 z m 378.26,1250.8 c -32.88,-269.5 -81.81,-411.1 -121.56,-526.1 -30.41,-87.9 -56.69,-163.9 -65.1,-267.8 -11.88,-146.4 21.84,-339.1 60.88,-562.1 8.09,-46.3 16.47,-94.4 24.79,-143.9 -7.76,25.7 -15.84,52 -24.48,79.6 -92.81,297.3 -166.11,532.1 -120.97,855.7 24.65,173.7 67.76,393.8 181.55,574.7 12.84,-2.7 25.87,-5.3 39.41,-7.5 8.89,-1.5 17.34,-2.2 25.48,-2.6 z m 132.06,-13.9 c 13.6,-12.3 27.14,-29 41.46,-46.7 24.04,-29.8 51.95,-64.2 90.69,-89.9 -9.15,-60.1 -37.41,-124.3 -72.12,-203.1 -48.07,-109.1 -107.86,-244.9 -136.43,-424.7 -44.21,-280.9 -67.81,-515.9 -73.06,-729.1 -9.49,57.1 -19.14,112.4 -28.41,165.4 -38.09,217.5 -70.98,405.4 -59.94,541.5 7.59,93.7 31.13,161.8 60.91,247.9 41.76,120.8 93.36,270 127.23,557.7 18.56,0.6 31.79,-3 49.67,-19 z m 422.1,-295.9 c -229.35,-333.1 -394.7,-742.5 -490.67,-1210 4.64,212.3 28,446.9 72.36,728.8 26.9,169.4 81.96,294.4 130.52,404.6 32.26,73.3 60.82,138.6 74.13,202.9 106.84,-30.6 163.93,-67.5 213.66,-126.3 z m 70.57,-310.3 c -27.81,-106.1 -90.91,-184.1 -157.71,-266.6 -40.98,-50.7 -83.38,-103.1 -116.07,-161.9 -2.21,-4 -3.49,-8.2 -4.26,-12.4 -59.67,-85.4 -113.73,-183.1 -161.78,-292.5 94,370.4 234.87,698.6 419.86,974 39.38,-61.9 46.05,-140.6 19.96,-240.6 z m 665.84,-308.3 -5.66,3.1 c -140.29,-261.7 -344.55,-371.9 -560.79,-488.5 -129.69,-70 -261.16,-141 -379.13,-246 124.17,162.7 268.59,271.4 410.8,378.4 169,127.1 343.35,258.3 468.32,475.8 4.19,-4.7 8.36,-9.4 12.12,-14.4 27.16,-36.1 40.75,-71.3 54.34,-108.4 z m 116.23,-192.7 c -34.51,-71.5 -153.02,-280.2 -397.59,-372.9 -41.64,-13.4 -83.01,-26.1 -123.94,-38.7 -184.64,-56.8 -362.24,-111.5 -515.82,-214.9 117.58,113.5 253.62,187.1 393.2,262.3 203.57,109.8 413.63,223.2 564.17,469.8 17.46,-33.7 41.74,-68.9 79.98,-105.6 z M 3216.16,14408 c 109.6,300.9 288.43,548.6 523.5,714.7 57.31,40.4 95.1,80.4 131.65,119.1 68.33,72.3 127.91,135 306.67,186.4 7.42,-3.4 14.22,-6.9 20.45,-10.5 -116.72,-209.6 -280.28,-332.9 -453.09,-462.8 -188.71,-142 -381.22,-286.8 -529.18,-546.9 z m 783.08,1038.2 c -89.89,-46.2 -139.08,-98 -186.96,-148.7 -35.35,-37.4 -68.74,-72.8 -119.43,-108.5 -172.43,-121.8 -316.04,-284.7 -426.4,-478.5 122.63,310.8 345.2,664.6 732.79,735.7 z m 546.04,-472.7 c 15.64,-7.9 30.55,-17.9 44.51,-29.3 -42.13,-83.1 -193.2,-343.1 -460.56,-405.2 -57.49,-13.2 -108.82,-24.4 -158.49,-35.2 -235.47,-51.3 -391.95,-85.5 -616.88,-226.4 163.22,151 373.1,215.9 593.61,283.7 41.6,12.8 83.65,25.7 125.97,39.4 l 1.88,0.6 c 255.76,96.6 386.11,302.1 434.33,396.3 10.15,-7.3 20.73,-14.6 32.2,-21.9 1.11,-0.7 2.26,-1.4 3.43,-2 z m 222.57,-175.9 c -17.82,101.7 -89.89,198.6 -183.83,247.3 -125.77,80.8 -149.36,145.3 -176.66,220 -15.76,43.1 -32.05,87.6 -68.07,135.6 -25.94,33.9 -59.26,63.5 -96.54,85.5 -72.6,42.3 -156.14,57.3 -241.49,43.1 -109.1,-17.7 -211.23,-56.4 -305.73,-115.1 18.91,35.7 34.91,74.1 46.09,116.8 32.74,125.5 21.98,226.7 -32.85,309.5 -74.97,113.3 -143.81,179.5 -311.9,226.9 -0.57,0.2 -1.15,0.3 -1.74,0.5 -54.31,12.7 -86.28,52.2 -120.13,94.1 -15.69,19.4 -31.92,39.5 -50.32,56 -52.26,47 -100.2,41.5 -138.73,37.1 -19.8,-2.3 -38.48,-4.4 -59.87,-0.8 -18.68,3.1 -37.46,7.1 -55.61,11.1 -78.97,17.1 -160.66,34.8 -250.68,-22.1 -0.69,-0.5 -1.38,-0.9 -2.06,-1.4 -109.34,-78.9 -308.6,-359.3 -280.02,-856.4 0.04,-0.5 0.07,-1 0.12,-1.5 22.19,-236.9 85.62,-381.2 150.88,-501.8 67.36,-124.2 127.41,-216 180.39,-296.9 66.01,-100.9 118.13,-180.6 149.27,-273.1 47.22,-139.9 53.97,-316.8 63.31,-561.6 2.49,-65.3 5.09,-133 8.66,-207 1.12,-40.5 3.08,-78.9 5.83,-114.8 0.02,-0.1 0.02,-0.2 0.03,-0.4 37.35,-483.9 189.43,-715.3 336.53,-939.2 135.74,-206.5 263.95,-401.6 305.09,-790.5 2.21,-20.8 19.81,-36.3 40.31,-36.3 1.43,0 2.88,0.1 4.32,0.2 22.31,2.4 38.46,22.4 36.12,44.7 -43.24,408.4 -182.9,620.9 -317.99,826.5 -141.42,215.2 -287.66,437.8 -323.43,900.7 -13.59,237.3 50.12,433 194.72,598.4 72.57,82.7 188.72,150.2 327.02,189.9 104.95,30 213.92,32.3 329.3,34.7 110.49,2.2 224.75,4.6 339.42,32.7 216.86,53.4 329.32,164.9 419.68,254.5 0.36,0.4 0.71,0.8 1.06,1.1 86.06,92.1 90.73,187.8 79.5,252" /></g><g
         transform="scale(1.33006)"
         id="g182"><path
           id="path184"
           style="fill:#3f403e;fill-opacity:1;fill-rule:nonzero;stroke:none"
           d="m 16183.5,12726.9 c -175.4,-76.5 -229.2,-125.6 -281.3,-173 -23.5,-21.4 -45.7,-41.7 -79.5,-65.3 -84.5,-58.8 -155.6,-78.9 -262.6,-74.5 -45,2.2 -96.9,8.7 -158.1,19.8 -93.5,17.6 -159.7,38.6 -212.2,69.6 7.9,15.6 18.8,31.2 33.6,46.6 70.8,73.8 209.7,98.7 401.5,71.8 189.8,-27.9 274.5,45.9 337.6,129.8 31.5,41.7 168.9,94.9 238.3,72.7 19.5,-6.2 28.3,-16.7 29.8,-35.2 -0.1,-1.9 -0.2,-3.8 -0.6,-5.7 -5,-29.7 -29.6,-47.6 -46.5,-56.6 z m -601.4,-588.6 c -12,-14.4 -23.3,-28 -32.9,-41.2 -1,-1.4 -2.1,-2.9 -3.1,-4.3 1.4,12.6 3.9,25.9 7.5,39.7 46.5,71.4 62.7,146.1 46.6,213.6 19.8,0.3 38.7,1.7 56.9,4 33.2,-81.7 -24.2,-150.8 -75,-211.8 z m -232.7,10.2 c 3.4,39.7 -6,77.3 -14.4,110.6 -12.7,50.4 -19.5,82.9 0.8,113.2 1.3,1.8 2.3,3.7 3.1,5.7 12.1,-2.8 24.7,-5.5 37.7,-8 v -0.2 c 8.8,-1.7 17.4,-3.3 25.9,-4.8 15.7,-2.8 32,-5.6 49.1,-8.3 l 0.1,0.5 c 27.7,-4.1 53.5,-7 77.7,-8.9 0.3,-1.2 0.5,-2.5 0.9,-3.7 19.1,-54.8 5.2,-120 -38.9,-183.5 -43.1,-62.1 -106.6,-110.8 -172.6,-135.6 17,31.5 30.5,72.4 30.6,123 z m -175.6,286.3 c 28.7,-15 60.8,-27.8 97.5,-39.1 -23.8,-45.9 -16.5,-92.6 -6.2,-135.4 -41.7,42.1 -90.2,105.6 -91.3,174.5 z m -155.3,269.7 c -32.2,60.3 -65.4,122.6 -195.1,245.6 -29.1,27.6 -41.1,53.7 -36.6,79.6 9.8,56.6 90.6,92.9 149.6,83.1 l 153.7,-26.4 c 12.4,-65.1 12.6,-150.7 -7,-281.2 -13.7,-78.6 -5.2,-159.6 23.7,-233.1 -12.2,13.6 -23.9,28.4 -35.5,44.7 -23.8,33.4 -37.9,59.8 -52.8,87.7 z m 29.6,719.7 c 29.1,24.2 78.9,32.5 136.5,22.8 l 45.2,-7.8 -32.8,-188.1 c -52.1,13.3 -98,29.4 -125.4,52.1 -23.4,19.8 -45.5,58.5 -45.2,79.5 0.3,19.7 11.9,33.5 21.7,41.5 z m 327.4,74.8 0.9,-0.1 c 28.1,-4 55.4,-14.6 86.9,-27 39,-15.2 83,-32.4 137,-39.4 52.9,-6.7 88.9,-5.5 120.6,-4.4 30.3,1.1 56.3,2 92.7,-4.2 20,-3.3 38.1,-14.8 49.9,-31.5 10.2,-14.5 14.3,-31.4 11.4,-47.8 l -0.1,-0.1 c -6.4,-37.3 -42.4,-62.6 -80.6,-56.1 -12.4,2.1 -36.4,14 -57.6,24.5 -12.5,6.3 -25.6,12.8 -38.6,18.6 -35,15.8 -65.3,22.1 -99.6,26.7 -25.9,3.6 -48.2,4.9 -68.6,4.9 -21.4,0 -40.7,-1.4 -59.7,-2.7 -35.4,-2.5 -68.8,-4.9 -113.9,2.7 -18.6,3.2 -34.8,13.5 -45.6,29 -10.6,15 -14.6,33 -11.5,50.9 v 0 0 c 0,0.1 0,0.1 0,0.1 6.6,38.1 39.4,62.2 76.4,55.9 z m 729.7,-255.3 c 6.4,-10.9 12.7,-27.6 6.5,-46 -5.1,-14.6 -24.1,-34.1 -47.7,-48.8 -11,-7 -25,-13.3 -39.9,-17.9 -38.1,-12.3 -76.4,-9 -117.8,-0.6 l 32.6,187.6 45.1,-7.7 c 57.7,-9.9 101.9,-34.2 121.2,-66.6 z m -453.5,-154.8 c 65.8,16.9 126.1,2.4 189.1,-12.9 37.2,-9.1 75.1,-18.2 113.9,-20.3 -62,-64.8 -113.6,-156.2 -154.8,-354.9 -13.2,-5.3 -27.9,-9.6 -44.2,-12.5 2.3,13.1 4.8,27.5 7.6,43.5 l 8.4,48.6 c 21.1,122.2 -21.7,228.5 -120,308.5 z m -372.7,238.4 c 18.6,-15.8 41,-26.6 65.8,-30.9 53.2,-8.9 92.2,-6.2 130,-3.5 35.1,2.4 68.2,4.8 114.4,-1.7 29.5,-4 53.4,-8.9 81.1,-21.4 11.8,-5.3 24.2,-11.5 36.2,-17.4 27.8,-13.9 54,-26.9 76.4,-30.7 7.7,-1.3 15.5,-2 23.1,-2 17,0 33.4,3.2 48.8,9 l -14.5,-83 c -76.1,18.2 -161.3,34.1 -257.9,-9.9 -40.3,22.8 -86.7,42.4 -138.7,58.5 -42.4,13.2 -92.7,23.5 -141.3,33.5 -13.1,2.7 -26.3,5.4 -39.3,8.1 z m -104.4,-730.4 c -1.1,-1.1 -2.1,-2.3 -3.1,-3.4 -25.6,63 -33.5,132.6 -21.7,200.9 32.6,216.4 13.4,323 -25.8,407.7 50.1,-17.1 108,-28.9 164.8,-40.6 49.1,-10 95.6,-19.6 134.8,-31.8 120.6,-37.2 317.3,-130.6 281.4,-337.7 l -8.4,-48.7 c -3.9,-22.6 -7.3,-42.3 -10.3,-59.3 -16,0.6 -33.2,2.1 -51.8,4.8 -217.5,30.5 -372.3,-0.4 -459.9,-91.9 z m 942.6,313.9 c 13.3,-2.2 26.9,-7.1 39.9,-13.9 -93.6,-1.9 -208.6,-51.5 -248.7,-104.5 -7.9,-10.6 -16.1,-20.9 -25.1,-30.9 20.5,79.3 43.1,135 68.2,177.8 z m -464.3,-1184.4 c 21.6,19.8 49.5,35.4 81.5,47 -34.6,-63.5 -56.5,-123.8 -67,-184.5 -18.4,-12.5 -36.5,-25.4 -54.1,-38.8 -21.9,73 -8.7,132.2 39.6,176.3 z m 375.9,51 c -98.3,-42.2 -191.9,-85.9 -278.9,-136.7 15.9,49.1 40.7,99.4 75.4,153.4 18.7,2.2 38,3.3 57.6,3.3 48.2,0 98.2,-6.7 145.9,-20 z m -207.7,-345.9 c -56.6,-21.7 -108.7,-15.5 -155.1,18.3 -12.4,9.1 -21.3,21.1 -28.1,33.5 124.5,98.3 271,169.5 430.4,237.4 -47.2,-130.9 -147.3,-251.1 -247.2,-289.2 z m 477.5,1355.6 c -0.1,0.5 -0.2,0.9 -0.2,1.4 1.6,33.7 -9.3,68.7 -31.6,100.2 -32.5,46 -85.5,80 -138.3,88.8 l -132.5,22.8 c 26.3,29.4 55.1,52.5 86.7,78 l 14.9,12 c 0.8,0.5 1.7,0.9 2.5,1.4 13.9,8.7 60.4,40.3 75.5,84.1 11.5,33.4 7.1,69.8 -12.2,102.4 -29.4,49.5 -90.6,85.5 -168,98.8 l -55.9,9.5 c -4,15.7 -10.9,31 -20.8,44.9 -22,31.3 -56.3,52.9 -93.9,59.3 -43,7.3 -73.7,6.2 -106.2,5 -30.6,-1 -62.3,-2.1 -109.7,3.9 -45.7,5.9 -83.9,20.9 -120.9,35.3 -34,13.3 -66,25.8 -101.7,30.9 -55.5,9.2 -107.6,-16.5 -135.3,-61.7 l -54.9,9.5 c -77.3,13.1 -147,-0.5 -191.3,-37.3 -29.2,-24.3 -45.5,-57.2 -46.1,-92.8 -0.3,-36.3 20.6,-77.6 45.8,-107.9 l 9.2,-15 c 21.1,-34.4 40.3,-65.6 55.1,-101.9 l -121.2,20.8 c -93.2,15.6 -210.4,-40.2 -227.5,-138.3 -8.5,-49.3 10.6,-96.5 56.7,-140.1 121.7,-115.5 151,-170.4 182,-228.4 15.2,-28.7 31,-58.2 57.4,-95.2 29.1,-40.8 59,-73.8 93.5,-101.2 -16.3,-87.3 23.4,-183.4 117.6,-273.9 2.8,-2.7 5.8,-5.4 8.6,-8.1 21,-19.7 37.5,-35.6 44.3,-69.4 -9.6,-81.4 -64.9,-121.5 -67.3,-123.2 -12.3,-8.5 -17.7,-24.1 -13,-38.3 4.5,-14 17.5,-23.5 32.1,-23.5 0.3,0 0.6,0.1 0.8,0.1 53.4,1.2 109.3,18.1 161.4,46.5 -46.9,-413.4 -33.9,-1194.9 11.7,-1573.4 2,-17.1 16.6,-29.7 33.5,-29.7 1.4,0 2.7,0 4.1,0.2 18.6,2.2 31.8,19.1 29.5,37.6 -24.5,204.3 -39.6,526.9 -40.6,844.3 l 2.1,-1.4 c 44.5,66.9 95.2,124.3 151,174.9 10.1,-15.7 23.2,-31.2 40.8,-43.9 40,-29.3 84.3,-44 130.6,-44 28.8,0 58.4,5.7 88.5,17.2 137.8,52.7 270.3,226.4 308.1,403.9 3.3,15.3 -4.4,30.9 -18.5,37.6 -177.7,85 -414.4,70 -527.7,-33.4 -72.4,-66.1 -90.7,-161.2 -51.6,-267.9 0.4,-1.3 0.9,-2.7 1.3,-4.1 -44.4,-38.6 -86.1,-81.1 -124.5,-128.8 1.7,245.3 12.3,478.8 33.7,641.8 0.7,5.6 -0.1,11.1 -2,16 4.6,3.8 9.1,7.7 13.5,11.7 2.6,-46.6 14.4,-84.1 28.3,-99.2 10.2,-11.5 21,-14.4 29.3,-14.4 4.4,0 8.1,0.9 10.5,1.6 22.7,7.1 25.4,28.7 27,41.6 2.3,17.9 6,48 31.2,82.7 8.2,11.4 18.9,24.1 30.1,37.6 51.9,62.3 129.2,155.2 90,269.3 46.7,13.9 90.7,36.3 137.3,68.8 37.4,26.2 62.3,48.9 86.4,70.8 50,45.6 97.3,88.7 261.1,160.2 l 0.1,-0.2 c 1,0.5 1.9,1 2.9,1.6 0.6,0.2 1.2,0.5 1.8,0.8 l -0.1,0.1 c 45.9,24.1 75.5,61.3 83.1,105.5 0.8,5.1 1.4,10.1 1.7,15.2 h 0.2" /></g><path
         id="path186"
         style="fill:#3f403e;fill-opacity:1;fill-rule:nonzero;stroke:none"
         d="m 4788.12,2573.6 c -5.72,18.8 -22.97,31.7 -42.61,31.9 -621.95,6 -1127.93,512.6 -1127.93,1129.2 0,371.7 184.34,719.4 493.11,930.1 16.3,11.1 23.45,31.5 17.63,50.4 -5.83,18.9 -23.26,31.7 -42.99,31.7 -1.25,0 -2.49,0.1 -3.7,0.2 -2.81,0.1 -5.52,0.3 -8.1,0.3 -678.08,0 -1229.74,-547.2 -1229.74,-1219.7 0,-672.2 551.66,-1219.1 1229.74,-1219.1 250.68,0 491.69,74.3 696.97,214.8 16.19,11.1 23.34,31.4 17.62,50.2" /><g
         transform="scale(1.20015)"
         id="g188"><path
           id="path190"
           style="fill:#3f403e;fill-opacity:1;fill-rule:nonzero;stroke:none"
           d="m 16269,3169.11 -595.8,182.56 c -19.8,6.08 -40.8,-5.08 -46.9,-24.91 -6.1,-19.75 5.1,-40.75 24.9,-46.75 l 595.9,-182.56 c 3.7,-1.16 7.3,-1.66 11,-1.66 16,0 30.9,10.33 35.8,26.5 6.1,19.83 -5.1,40.74 -24.9,46.82" /></g><g
         transform="scale(1.22267)"
         id="g192"><path
           id="path194"
           style="fill:#3f403e;fill-opacity:1;fill-rule:nonzero;stroke:none"
           d="m 15984.8,3916.68 c -12.4,16.11 -35.6,19.14 -51.6,6.7 -16.1,-12.43 -19.2,-35.49 -6.7,-51.6 l 302.8,-392.99 c 7.2,-9.41 18.2,-14.32 29.2,-14.32 7.8,0 15.7,2.46 22.4,7.69 16.1,12.35 19.1,35.49 6.7,51.61 l -302.8,392.91" /></g><g
         transform="scale(1.20015)"
         id="g196"><path
           id="path198"
           style="fill:#3f403e;fill-opacity:1;fill-rule:nonzero;stroke:none"
           d="m 16247.1,2655.92 -424.6,-130.06 c -19.8,-6.08 -30.9,-27 -24.9,-46.83 5,-16.17 19.8,-26.5 35.9,-26.5 3.6,0 7.3,0.5 11,1.67 l 424.5,130.07 c 19.8,6.08 31,26.99 24.9,46.83 -6.1,19.82 -27.1,30.91 -46.8,24.82" /></g><g
         transform="scale(1.26148)"
         id="g200"><path
           id="path202"
           style="fill:#3f403e;fill-opacity:1;fill-rule:nonzero;stroke:none"
           d="m 16264.3,4179.94 c -19.6,0 -35.6,-16.02 -35.6,-35.67 v -580.99 c 0,-19.66 16,-35.67 35.6,-35.67 19.8,0 35.7,16.01 35.7,35.67 v 580.99 c 0,19.65 -15.9,35.67 -35.7,35.67" /></g><g
         transform="scale(1.36742)"
         id="g204"><path
           id="path206"
           style="fill:#3f403e;fill-opacity:1;fill-rule:nonzero;stroke:none"
           d="m 16294.7,2919.81 c -5.3,17.41 -23.8,27.21 -41.1,21.87 l -523,-160.23 c -17.3,-5.34 -27.1,-23.69 -21.8,-41.1 4.3,-14.19 17.3,-23.25 31.5,-23.25 3.2,0 6.4,0.44 9.6,1.46 l 523,160.23 c 17.4,5.26 27.1,23.69 21.8,41.02" /></g><g
         transform="scale(1.3238)"
         id="g208"><path
           id="path210"
           style="fill:#3f403e;fill-opacity:1;fill-rule:nonzero;stroke:none"
           d="m 16282.4,3623.67 c -14.9,11.48 -36.2,8.68 -47.7,-6.2 L 15955,3254.58 c -11.4,-14.89 -8.7,-36.26 6.2,-47.67 6.2,-4.83 13.5,-7.1 20.7,-7.1 10.2,0 20.2,4.53 27,13.22 l 279.7,362.97 c 11.4,14.88 8.7,36.18 -6.2,47.67" /></g><g
         transform="scale(1.35481)"
         id="g212"><path
           id="path214"
           style="fill:#3f403e;fill-opacity:1;fill-rule:nonzero;stroke:none"
           d="m 16272.5,2237.51 -376,115.22 c -17.5,5.39 -36.1,-4.43 -41.5,-21.99 -5.4,-17.57 4.5,-36.1 22,-41.49 l 376.1,-115.22 c 3.3,-1.03 6.5,-1.47 9.8,-1.47 14.1,0 27.4,9.15 31.7,23.47 5.4,17.56 -4.5,36.09 -22.1,41.48" /></g><path
         id="path216"
         style="fill:#3f403e;fill-opacity:1;fill-rule:nonzero;stroke:none"
         d="m 7210.97,5425.2 c -178.66,-36.3 -218.05,-75.9 -254.67,-252.5 -1.66,-8.3 -13.32,-8.3 -14.98,0 -36.62,176.6 -76.01,216.2 -254.67,252.5 -8.32,1.6 -8.32,13.2 0,14.8 178.66,36.3 218.05,75.4 254.67,252.5 1.66,8.3 13.32,8.3 14.98,0 36.62,-177.1 76.01,-216.2 254.67,-252.5 8.32,-1.6 8.32,-13.2 0,-14.8 v 0" /><path
         id="path218"
         style="fill:#3f403e;fill-opacity:1;fill-rule:nonzero;stroke:none"
         d="m 12546.9,2996.5 c -34.4,88.5 -53.9,152.3 -61.6,200.7 -48.3,7.7 -112.7,27 -202,60.5 v 3.3 c 89.3,33.6 153.7,52.9 202,60.6 7.7,47.8 27.2,111.6 61.6,200.7 h 2.7 c 33.9,-89.1 53.3,-152.9 61.1,-200.7 48.8,-7.7 113.1,-27 202.5,-60.6 v -3.3 c -89.4,-33.5 -153.7,-52.8 -202.5,-60.5 -7.8,-48.4 -27.2,-112.2 -61.1,-200.7 h -2.7" /><path
         id="path220"
         style="fill:#3f403e;fill-opacity:1;fill-rule:nonzero;stroke:none"
         d="m 8735.35,2733.2 c 352.87,-149 352.87,-13.2 0,-162.2 -150.36,-349.9 -13.31,-349.9 -164.23,0 -352.31,149 -352.31,13.2 0,162.2 150.92,349.9 13.87,349.9 164.23,0 v 0" /><path
         id="path222"
         style="fill:#3f403e;fill-opacity:1;fill-rule:nonzero;stroke:none"
         d="m 8704.28,5305.4 c -326.79,-38 -357.86,-69.3 -396.7,-393.3 -38.84,324 -69.91,355.3 -396.7,393.3 326.79,38.5 357.86,69.3 396.7,393.3 38.84,-324 69.91,-354.8 396.7,-393.3 v 0" /><path
         id="path224"
         style="fill:#3f403e;fill-opacity:1;fill-rule:nonzero;stroke:none"
         d="m 11469,4323.4 c -157.6,-31.9 -193.1,-66.5 -225.3,-222.8 -1.7,-7.7 -11.6,-7.7 -13.3,0 -32.2,156.3 -67.7,190.9 -225.3,222.8 -7.2,1.7 -7.2,12.1 0,13.8 157.6,31.9 193.1,66.5 225.3,222.8 1.7,7.7 11.6,7.7 13.3,0 32.2,-156.3 67.7,-190.9 225.3,-222.8 7.2,-1.7 7.2,-12.1 0,-13.8 v 0" /><path
         id="path226"
         style="fill:#3f403e;fill-opacity:1;fill-rule:nonzero;stroke:none"
         d="m 7374.64,4149.6 c 675.77,-164.5 675.77,-20.9 0,-185.4 -165.9,-670 -21.09,-670 -186.98,0 -676.33,164.5 -676.33,20.9 0,185.4 165.89,670.5 21.08,670.5 186.98,0 v 0" /><path
         id="path228"
         style="fill:#3f403e;fill-opacity:1;fill-rule:nonzero;stroke:none"
         d="m 6891.8,2308.6 c -27.18,71.5 -42.72,122.6 -48.82,161.1 -39.4,6.1 -90.99,22 -162.57,49 v 2.2 c 71.58,27 123.17,42.9 162.57,49 6.1,38.5 21.64,89.6 48.82,161.1 h 2.77 c 27.19,-71.5 42.73,-122.6 48.83,-161.1 39.39,-6.1 90.99,-22 162.57,-49 v -2.2 c -71.58,-27 -123.18,-42.9 -162.57,-49 -6.1,-38.5 -21.64,-89.6 -48.83,-161.1 h -2.77" /><path
         id="path230"
         style="fill:#3f403e;fill-opacity:1;fill-rule:nonzero;stroke:none"
         d="m 9950.2,4134 102.7,-435.1 431,129.3 -328.4,-305.9 328.4,-305.8 -431,129.3 -102.7,-435.2 -103.19,435.2 -431.1,-129.3 328.46,305.8 -328.46,305.9 431.1,-129.3 103.19,435.1" /><path
         id="path232"
         style="fill:#3f403e;fill-opacity:1;fill-rule:nonzero;stroke:none"
         d="m 12182.7,5698.7 37.7,-216.2 208.6,75.4 -170.3,-140.8 170.3,-140.9 -208.6,75.9 -37.7,-216.7 -37.8,216.7 -208,-75.9 170.3,140.9 -170.3,140.8 208,-75.4 37.8,216.2" /><path
         id="path234"
         style="fill:#3f403e;fill-opacity:1;fill-rule:nonzero;stroke:none"
         d="m 8496.56,4218.5 40.5,-306.9 288.52,118.3 -247.46,-188.2 247.46,-188.1 -288.52,118.3 -40.5,-306.4 -40.5,306.4 -288.51,-118.3 247.45,188.1 -247.45,188.2 288.51,-118.3 40.5,306.9" /><path
         id="path236"
         style="fill:#3f403e;fill-opacity:1;fill-rule:nonzero;stroke:none"
         d="m 11569.1,2799 c 407.2,-172.2 407.2,-15.4 0,-187.6 -174.3,-403.8 -15.6,-403.8 -189.8,0 -406.7,172.2 -406.7,15.4 0,187.6 174.2,403.7 15.5,403.7 189.8,0 v 0" /><path
         id="path238"
         style="fill:#3f403e;fill-opacity:1;fill-rule:nonzero;stroke:none"
         d="m 10272.5,4818.6 c -57.2,148.5 -89.4,255.2 -102.7,336.1 -81,12.6 -189.18,45.1 -338.99,101.2 v 5.5 c 149.81,56.1 257.99,88.5 338.99,101.2 13.3,80.9 45.5,187.6 102.7,336.1 h 4.9 c 57.2,-148.5 89.9,-255.2 102.7,-336.1 81.5,-12.7 189.2,-45.1 339,-101.2 v -5.5 c -149.8,-56.1 -257.5,-88.6 -339,-101.2 -12.8,-80.9 -45.5,-187.6 -102.7,-336.1 h -4.9" /><path
         id="path240"
         style="fill:#3f403e;fill-opacity:1;fill-rule:nonzero;stroke:none"
         d="m 13760.3,5423.1 c -198.6,-91.9 -185.3,-78.1 -277.9,-275.6 -92.1,197.5 -78.8,183.7 -277.4,275.6 198.6,91.9 185.3,78.7 277.4,275.6 92.6,-196.9 79.3,-183.7 277.9,-275.6 v 0" /><path
         id="path242"
         style="fill:#3f403e;fill-opacity:1;fill-rule:nonzero;stroke:none"
         d="m 13753.7,2568.9 c -179.8,-36.3 -219.7,-75.9 -256.3,-254.1 -1.7,-8.3 -13.9,-8.3 -15.6,0 -36.6,178.2 -76.5,217.8 -256.3,254.1 -8.3,1.6 -8.3,13.8 0,15.4 179.8,36.3 219.7,75.9 256.3,254.1 1.7,8.8 13.9,8.8 15.6,0 36.6,-178.2 76.5,-217.8 256.3,-254.1 8.9,-1.6 8.9,-13.8 0,-15.4 v 0" /><path
         id="path244"
         style="fill:#3f403e;fill-opacity:1;fill-rule:nonzero;stroke:none"
         d="m 12837,4324.7 c -137.1,-28 -167.6,-58.3 -195.3,-194.1 -1.7,-6.7 -10.6,-6.7 -12.2,0 -27.8,135.8 -58.3,166.1 -195.9,194.1 -6.1,1.1 -6.1,9.9 0,11.6 137.6,27.5 168.1,57.7 195.9,194.2 1.6,6 10.5,6 12.2,0 27.7,-136.5 58.2,-166.7 195.3,-194.2 6.6,-1.7 6.6,-10.5 0,-11.6 v 0" /><path
         id="path246"
         style="fill:#3f403e;fill-opacity:1;fill-rule:nonzero;stroke:none"
         d="m 13760.3,3680.3 c -116.5,-53.9 -108.7,-45.7 -162.5,-161.2 -54.4,115.5 -46.6,107.3 -163.1,161.2 116.5,53.9 108.7,46.2 163.1,161.7 53.8,-115.5 46,-107.8 162.5,-161.7 v 0" /><path
         id="path248"
         style="fill:#3f403e;fill-opacity:1;fill-rule:nonzero;stroke:none"
         d="m 9410.14,4908.2 c -97.1,-19.8 -118.73,-41.2 -138.15,-137.5 -1.11,-4.4 -7.77,-4.4 -8.32,0 -19.98,96.3 -41.62,117.7 -138.71,137.5 -4.44,0.6 -4.44,7.2 0,8.3 97.09,19.2 118.73,40.7 138.71,136.9 0.55,4.4 7.21,4.4 8.32,0 19.42,-96.2 41.05,-117.7 138.15,-136.9 4.43,-1.1 4.43,-7.7 0,-8.3 v 0" /><g
         transform="scale(1.04954)"
         id="g250"><path
           id="path252"
           style="fill:#3f403e;fill-opacity:1;fill-rule:nonzero;stroke:none"
           d="m 15700.7,4757.52 c -283.4,0 -513.9,228.38 -513.9,509.17 0,280.6 230.5,508.79 513.9,508.79 283.2,0 513.5,-228.19 513.5,-508.79 0,-280.79 -230.3,-509.17 -513.5,-509.17 z m 0,1103.72 c -330.6,0 -599.7,-266.69 -599.7,-594.55 0,-328.05 269.1,-594.93 599.7,-594.93 330.4,0 599.3,266.88 599.3,594.93 0,327.86 -268.9,594.55 -599.3,594.55" /></g><g
         transform="scale(1.03526)"
         id="g254"><path
           id="path256"
           style="fill:#3f403e;fill-opacity:1;fill-rule:nonzero;stroke:none"
           d="m 15917.3,5719.16 c -211.3,0 -383.1,-170.39 -383.1,-379.81 0,-209.61 171.8,-380.2 383.1,-380.2 211.1,0 382.7,170.59 382.7,380.2 0,209.42 -171.6,379.81 -382.7,379.81" /></g><g
         transform="scale(1.67325)"
         id="g258"><path
           id="path260"
           style="fill:#3f403e;fill-opacity:1;fill-rule:nonzero;stroke:none"
           d="m 16283.8,1429.26 c -179.9,114.27 -282.4,196.2 -398.9,299.06 -59.7,52.59 -112.4,107.75 -159.6,164.83 12.4,73.39 80.6,211.86 158.9,370.95 45.3,91.98 96.7,196.21 142.9,299.9 117.5,263.02 232.7,591.25 80.1,796.24 -6.6,8.96 -18.2,12.85 -29,9.74 -10.7,-3.05 -18.5,-12.49 -19.3,-23.67 -7.3,-89.22 -51.6,-211.32 -105.5,-290.39 -67.1,-98.67 -132.5,-199.49 -196.2,-347.11 -53,-122.7 -158.5,-414.17 -115,-704.74 -14.2,20.8 -27.8,41.78 -40.7,62.93 -1.1,2.93 -2.7,5.74 -4.9,8.19 -52.6,87.73 -95,178.1 -129.9,269.12 26.2,43.15 41.7,85.1 59.2,133.15 6,16.5 12.3,33.65 19.4,51.82 102,262.84 137.9,443.81 161.7,600.21 6.6,44.04 12.5,87.55 18.7,133.69 18,132.86 38.3,283.46 83,473.39 15.7,65.8 39.9,103.93 54.4,126.76 9.3,14.7 15.5,24.44 15.6,36.52 0,8.96 -4.3,17.33 -11.7,22.41 -7.4,5.02 -16.8,6.09 -25.2,2.75 -258.4,-103.15 -370,-462.16 -418.1,-745.2 -33.5,-197.76 -43.7,-406.4 -38.5,-576.49 -1.5,5.98 -3,11.9 -4.5,17.81 -0.2,2.22 -0.8,4.37 -1.6,6.52 -31.1,125.62 -53.3,248.56 -74,363.37 -7.5,41.59 -14.7,81.27 -22,119.64 0.1,0.72 0.3,1.44 0.3,2.15 7.1,236.61 82.7,414.89 155.8,587.37 98.5,232 200.2,472.01 129.3,846.73 -17.5,81.34 -12.1,194.72 -8.2,277.49 2.2,45.54 3.3,75.6 2.3,96.46 0,0.06 0,0.12 0,0.18 -0.9,18.64 -3.7,29.94 -9.3,38.31 -4.8,7.23 -12.9,11.71 -21.6,11.89 -8.8,0.24 -17,-3.77 -22.3,-10.76 -200.2,-267.68 -280.1,-678.32 -310.9,-917.68 -5.7,32.75 -11.1,69.27 -16.5,106.56 -31,212.82 -73.6,504.23 -255.2,628.48 -0.4,0.24 -0.7,0.48 -1,0.66 -3.2,2.03 -6.6,3.29 -10.2,3.82 -3.6,0.54 -7.4,0.42 -11.1,-0.59 0,0 0,0 -0.1,0 -1.8,-0.48 -3.7,-1.2 -5.4,-2.15 v 0 c 0,0 0,0 -0.1,0 v 0 c -4.3,-2.28 -7.7,-5.56 -10.2,-9.51 -2,-3.17 -3.3,-6.69 -3.9,-10.22 -0.5,-3.46 -0.3,-7.05 0.6,-10.7 0.1,-0.41 0.2,-0.83 0.3,-1.25 19.3,-65.14 -1.3,-188.14 -19.5,-296.61 -10.3,-61.2 -20,-118.93 -22,-163.04 -16.2,-352.54 169.7,-823.84 355.3,-1048.38 7.5,-43.15 16.5,-83.13 26.9,-119.23 8.7,-44.22 17,-90.36 25.8,-139.19 13.3,-74.1 27.7,-153.59 45.2,-236.24 -47.5,71.77 -91.7,146.24 -134.9,219.15 -57.4,96.7 -111.5,188.02 -169.2,266.67 -55.7,75.96 -112.8,140.14 -173.4,208.1 -99,111.16 -201.4,226.2 -301.9,401.55 -29.3,51.1 -51.6,103.99 -67.9,142.54 -21.1,49.78 -29.1,68.79 -45.3,76.2 -0.2,0.06 -0.4,0.18 -0.6,0.24 -8.1,3.58 -17.5,2.87 -25.1,-1.86 -7.5,-4.72 -12.2,-12.91 -12.5,-21.81 -9.9,-274.62 199.9,-733.01 394.5,-972.6 103.3,-127.18 255.2,-234.69 401.9,-338.62 59.9,-42.38 116.3,-82.42 167.6,-122.4 21.5,-84.69 47.5,-171.47 79.9,-258.18 0.2,-0.6 0.3,-1.26 0.4,-1.79 0.6,-2.93 1.8,-5.56 3.3,-8.07 9.1,-24.15 18.9,-48.29 29.1,-72.38 -1.5,2.15 -3,4.3 -4.6,6.46 -42.7,60.3 -87,122.63 -135.4,173.37 -123.6,130.11 -258.2,204.93 -400.6,284.18 -65.5,36.4 -133.2,74.05 -200,117.68 -60,39.26 -152.5,123.95 -234.1,198.71 -159.7,146.24 -187.3,167.88 -215.1,143.62 -8.7,-7.65 -11.6,-20.03 -7.1,-30.72 145.6,-344.01 455.6,-663.98 697.1,-848.65 113.4,-86.84 223.1,-151.45 320.9,-196.39 124.3,-57.07 229.3,-82.17 298.1,-80.32 33.1,-53.79 69.9,-106.56 111.1,-157.78 1.5,-2.87 3.6,-5.26 6,-7.35 50,-61.44 106.1,-120.72 169.7,-176.78 118.5,-104.59 222.8,-187.9 405.6,-304.08 1.1,-0.66 2.2,-1.26 3.3,-1.73 12,-5.56 26.6,-1.5 33.9,9.98 7.9,12.55 4.2,29.16 -8.3,37.11" /></g><g
         transform="scale(1.01163)"
         id="g262"><path
           id="path264"
           style="fill:#3f403e;fill-opacity:1;fill-rule:nonzero;stroke:none"
           d="m 12661.2,10003.1 c 4.6,23.5 12.3,43.3 19,60.9 10.5,27 18,46.6 14.3,73.6 -16.4,121.4 0.1,152 44.5,197.4 14.9,15.3 31.8,32.6 50.8,64.2 4.9,8.7 4.7,25.5 4.4,45 -0.4,31.6 -0.9,70.9 18.6,114.4 36.3,79.6 130.3,136.4 183,163.1 37,18.8 74.1,32.9 109.9,46.4 70.2,26.7 130.9,49.7 173,100.8 15.7,18.8 28.7,39.4 38.8,61.1 6,12.8 11.2,28.1 16.6,44.3 15.3,45.2 34.4,101.5 86.2,140.2 23.8,17.6 42.6,24.5 57.7,29.9 1,0.4 1.9,0.7 2.8,1 19.8,7 34.5,13 69.5,60.4 28.6,40 77.9,67.5 122.3,68.5 19,0.6 38.1,-2.7 56.7,-5.8 21.7,-3.7 42.3,-7.1 61.9,-4.7 23.9,2.8 40.2,10.8 53,26 39.4,46.1 103,63 170.1,45.1 247.7,-67.3 317.9,-524.7 342.4,-747.6 35.8,128.8 81.2,255.8 132.8,354.9 73.5,141.5 108.2,161.9 197.6,199.9 20,8.6 42.8,18.3 70.1,31.7 21.9,11 41.4,26.4 60.2,41.4 30.9,24.5 62.9,49.8 106,57 80,13.2 122.8,-15.5 160.4,-40.9 12.9,-8.6 25,-16.7 38.8,-23.5 38.7,-18.8 55.5,-22.7 74.8,-23.6 61.5,-2.7 108.3,-20 147.4,-54.6 20.6,-18.5 35.3,-43.7 49.5,-68.1 9.5,-16.2 19.3,-33 27.7,-41.9 8.2,-7.1 47,-19.3 90.8,-23.1 81.5,-6.4 113.4,-50.1 147.2,-96.3 l 4.7,-6.4 c 20.7,-28.5 46,-42.8 75,-59.4 18.4,-10.5 37.5,-21.3 56.6,-36.4 46.1,-36.3 79.5,-89.6 89.2,-142.6 4.2,-22.9 3.6,-50.8 2.9,-80.5 -0.7,-29.9 -1.5,-63.9 3.6,-85.3 0.7,-2.9 1.6,-6.3 3.7,-9.8 0.8,-0.9 1.3,-1.8 2,-2.7 4.6,-5.7 13.2,-11 30.9,-12.9 100.6,-10.2 143.9,-81.2 173.3,-149.4 21.1,-49.4 27.2,-56.5 61,-95.9 l 9.1,-10.6 c 62.4,-73.1 79.2,-123.6 72,-215.63 -2,-26.49 8,-50.91 23.5,-79.38 10.4,-19.08 17.4,-35.29 21.8,-49.72 1.5,-3.46 2.6,-7.12 3.1,-10.88 7.6,-32.22 2.4,-56.34 -5.8,-86.59 -2,-7.12 -4.1,-14.82 -6.4,-24.41 -2.1,-8.6 -2,-26.59 -2,-43.99 0.1,-27.68 0.1,-58.92 -6.9,-88.47 -18.3,-81.36 -91.9,-91.14 -135.9,-96.97 l -5.8,-0.8 c -32.2,-4.15 -75.5,-7.9 -125.6,-12.15 -148.4,-12.66 -372.7,-31.64 -589.4,-88.18 -260.3,-67.61 -723.1,-236.35 -895.8,-605.36 -48.7,-103.69 -26.5,-211.04 19.5,-318 0.7,-1.58 1.3,-2.96 2,-4.54 0.1,-0.2 0.2,-0.4 0.3,-0.6 0,0 0,0 0,-0.1 1,-2.17 1.9,-4.35 2.8,-6.52 23.5,-52.59 52.2,-105.08 80.7,-157.07 8.9,-16.22 17.7,-32.23 26.2,-48.15 120.4,-224.19 341.1,-529.14 708.9,-708.85 22.2,-10.77 31.3,-37.46 20.5,-59.5 -5.3,-10.88 -14.4,-18.59 -25,-22.35 -10.9,-3.95 -23.2,-3.56 -34.5,1.88 -389.2,190.19 -621.7,511.06 -748.3,746.81 -8.3,15.62 -17,31.44 -25.8,47.45 -26.9,49.03 -54.8,99.84 -78.7,152.13 -1,1.68 -1.8,3.36 -2.6,5.14 -1.2,3.07 -2.5,6.03 -3.8,9.1 -0.7,1.58 -1.4,3.16 -2.1,4.74 -0.8,1.59 -1.5,3.27 -2.2,4.84 -5,11.37 -10.5,22.74 -16.3,34.21 -6.2,12.06 -12.6,24.22 -19,36.28 -112.3,205.01 -322.8,429.7 -627.9,669.51 -202.5,159.05 -411.6,264.92 -613.7,367.33 -62.8,31.83 -122.1,61.78 -180.1,92.92 -11.2,6.02 -23.9,12.55 -37.6,19.57 -124.6,64.15 -333.2,171.4 -300.9,331.1" /></g><path
         id="path266"
         style="fill:#3f403e;fill-opacity:1;fill-rule:nonzero;stroke:none"
         d="m 5564.22,9979.3 c -19.76,112.8 -99.62,220.2 -203.74,274.2 -139.4,89.6 -165.54,161.1 -195.8,243.8 -17.46,47.7 -35.52,97.1 -75.44,150.3 -28.75,37.6 -65.69,70.3 -107.01,94.7 -80.45,47 -173.04,63.5 -267.65,47.9 -120.91,-19.7 -234.11,-62.6 -338.84,-127.7 20.96,39.6 38.68,82.2 51.08,129.5 36.29,139.1 24.37,251.3 -36.41,343 -83.1,125.6 -159.38,199 -345.68,251.5 -0.63,0.2 -1.28,0.4 -1.94,0.5 -60.19,14.1 -95.62,57.9 -133.15,104.4 -17.38,21.5 -35.36,43.7 -55.76,62.1 -57.92,52 -111.05,45.9 -153.76,41.1 -21.95,-2.5 -42.64,-4.9 -66.35,-1 -20.71,3.5 -41.52,8 -61.64,12.3 -87.52,19 -178.07,38.6 -277.83,-24.5 -0.77,-0.5 -1.54,-1 -2.28,-1.5 -121.2,-87.4 -342.04,-398.2 -310.36,-949.2 0.03,-0.5 0.08,-1.1 0.12,-1.6 24.6,-262.6 94.9,-422.5 167.23,-556.2 74.66,-137.6 141.21,-239.3 199.94,-329.1 73.15,-111.8 130.93,-200.1 165.43,-302.7 52.34,-155 59.82,-351 70.18,-622.4 2.76,-72.4 5.64,-147.3 9.59,-229.4 1.25,-44.9 3.41,-87.5 6.46,-127.2 0.02,-0.2 0.02,-0.3 0.04,-0.4 41.4,-536.4 209.96,-792.9 372.99,-1041 150.45,-228.9 292.54,-445.2 338.13,-876.1 2.45,-23.1 21.97,-40.3 44.68,-40.3 1.59,0 3.2,0.1 4.79,0.3 24.73,2.6 42.63,24.7 40.02,49.4 -47.9,452.7 -202.71,688.3 -352.42,916.1 -156.74,238.5 -318.83,485.2 -358.47,998.2 -15.07,263 55.55,480 215.82,663.3 80.42,91.7 209.15,166.5 362.44,210.5 116.31,33.3 237.1,35.8 364.97,38.4 122.46,2.5 249.1,5.1 376.19,36.3 240.35,59.2 364.99,182.8 465.15,282.1 0.4,0.4 0.79,0.8 1.17,1.2 95.38,102 100.56,208.2 88.11,279.2" /><g
         transform="scale(2.23006)"
         id="g268"><path
           id="path270"
           style="fill:#3f403e;fill-opacity:1;fill-rule:nonzero;stroke:none"
           d="m 16010.4,5116.59 c -6.3,9.2 -18.9,11.57 -28.1,5.26 -9.2,-6.28 -11.5,-18.84 -5.2,-28.04 184.8,-270.26 282.5,-585.31 282.5,-911.13 V 2540.74 c 0,-318.46 -93.7,-627.51 -271.1,-893.78 -6.1,-9.29 -3.6,-21.8 5.6,-27.99 3.5,-2.28 7.4,-3.36 11.2,-3.36 6.5,0 12.9,3.14 16.8,8.97 181.8,272.91 277.9,589.72 277.9,916.16 v 1641.94 c 0,333.98 -100.1,656.91 -289.6,933.91" /></g><g
         transform="scale(1.81387)"
         id="g272"><path
           id="path274"
           style="fill:#3f403e;fill-opacity:1;fill-rule:nonzero;stroke:none"
           d="m 15944.8,3123.71 v 2018.66 c 0,400.58 120.2,787.93 347.5,1120.19 7.7,11.31 4.8,26.75 -6.5,34.48 -11.3,7.75 -26.8,4.84 -34.5,-6.47 -232.9,-340.55 -356,-737.58 -356,-1148.2 V 3123.71 c 0,-401.36 118.1,-790.85 341.6,-1126.38 4.8,-7.17 12.7,-11.02 20.6,-11.02 4.8,0 9.5,1.32 13.8,4.13 11.4,7.61 14.5,22.99 6.9,34.4 -218.1,327.31 -333.4,707.33 -333.4,1098.87" /></g><g
         transform="scale(2.19637)"
         id="g276"><path
           id="path278"
           style="fill:#3f403e;fill-opacity:1;fill-rule:nonzero;stroke:none"
           d="m 16263.1,2579.71 c 0,-778.74 -639.1,-1412.29 -1424.6,-1412.29 -785.5,0 -1424.6,633.55 -1424.6,1412.29 v 1667.11 c 0,778.72 639.1,1412.28 1424.6,1412.28 785.5,0 1424.6,-633.56 1424.6,-1412.28 z m 36.9,1667.11 c 0,385.54 -152.5,749.05 -429.3,1023.55 -276.9,274.45 -643.4,425.59 -1032.2,425.59 -388.8,0 -755.3,-151.14 -1032.2,-425.59 -276.8,-274.5 -429.3,-638.01 -429.3,-1023.55 V 2579.71 c 0,-385.55 152.5,-749.06 429.3,-1023.55 276.9,-274.46 643.4,-425.61 1032.2,-425.61 388.8,0 755.3,151.15 1032.2,425.61 276.8,274.49 429.3,638 429.3,1023.55 v 1667.11" /></g></g></g></svg>
