<?xml version="1.0" encoding="UTF-8"?>
<!-- Created with Inkscape (http://www.inkscape.org/) -->
<svg width="265.22mm" height="353.74mm" version="1.1" viewBox="0 0 265.22 353.74" xmlns="http://www.w3.org/2000/svg">
 <g transform="translate(21.361 58.139)">
  <g transform="matrix(.078672 0 0 -.078672 -1038.5 383.2)">
   <path d="m16010 5116.6c-6.3 9.2-18.9 11.57-28.1 5.26-9.2-6.28-11.5-18.84-5.2-28.04 184.8-270.26 282.5-585.31 282.5-911.13v-1641.9c0-318.46-93.7-627.51-271.1-893.78-6.1-9.29-3.6-21.8 5.6-27.99 3.5-2.28 7.4-3.36 11.2-3.36 6.5 0 12.9 3.14 16.8 8.97 181.8 272.91 277.9 589.72 277.9 916.16v1641.9c0 333.98-100.1 656.91-289.6 933.91" fill="#3f403e"/>
  </g>
  <g transform="matrix(.063989 0 0 -.063989 -1038.5 383.2)">
   <path d="m15945 3123.7v2018.7c0 400.58 120.2 787.93 347.5 1120.2 7.7 11.31 4.8 26.75-6.5 34.48-11.3 7.75-26.8 4.84-34.5-6.47-232.9-340.55-356-737.58-356-1148.2v-2018.7c0-401.36 118.1-790.85 341.6-1126.4 4.8-7.17 12.7-11.02 20.6-11.02 4.8 0 9.5 1.32 13.8 4.13 11.4 7.61 14.5 22.99 6.9 34.4-218.1 327.31-333.4 707.33-333.4 1098.9" fill="#3f403e"/>
  </g>
  <g transform="matrix(.077483 0 0 -.077483 -1038.5 383.2)">
   <path d="m16263 2579.7c0-778.74-639.1-1412.3-1424.6-1412.3s-1424.6 633.55-1424.6 1412.3v1667.1c0 778.72 639.1 1412.3 1424.6 1412.3s1424.6-633.56 1424.6-1412.3zm36.9 1667.1c0 385.54-152.5 749.05-429.3 1023.6-276.9 274.45-643.4 425.59-1032.2 425.59s-755.3-151.14-1032.2-425.59c-276.8-274.5-429.3-638.01-429.3-1023.6v-1667.1c0-385.55 152.5-749.06 429.3-1023.6 276.9-274.46 643.4-425.61 1032.2-425.61s755.3 151.15 1032.2 425.61c276.8 274.49 429.3 638 429.3 1023.6v1667.1" fill="#3f403e"/>
  </g>
 </g>
</svg>
