<?xml version="1.0" encoding="UTF-8" standalone="no"?>
<!-- Created with Inkscape (http://www.inkscape.org/) -->

<svg
   width="265.21732mm"
   height="353.74194mm"
   viewBox="0 0 265.21732 353.74194"
   version="1.1"
   id="svg2597"
   xmlns="http://www.w3.org/2000/svg"
   xmlns:svg="http://www.w3.org/2000/svg">
  <defs
     id="defs2594" />
  <g
     id="layer1"
     transform="translate(389.46422,208.85035)">
    <g
       transform="matrix(0.07867157,0,0,-0.07867157,-1406.5935,232.49006)"
       id="g268">
      <path
         id="path270"
         style="fill:#3f403e;fill-opacity:1;fill-rule:nonzero;stroke:none"
         d="m 16010.4,5116.59 c -6.3,9.2 -18.9,11.57 -28.1,5.26 -9.2,-6.28 -11.5,-18.84 -5.2,-28.04 184.8,-270.26 282.5,-585.31 282.5,-911.13 V 2540.74 c 0,-318.46 -93.7,-627.51 -271.1,-893.78 -6.1,-9.29 -3.6,-21.8 5.6,-27.99 3.5,-2.28 7.4,-3.36 11.2,-3.36 6.5,0 12.9,3.14 16.8,8.97 181.8,272.91 277.9,589.72 277.9,916.16 v 1641.94 c 0,333.98 -100.1,656.91 -289.6,933.91" />
    </g>
    <g
       transform="matrix(0.06398931,0,0,-0.06398931,-1406.5935,232.49006)"
       id="g272">
      <path
         id="path274"
         style="fill:#3f403e;fill-opacity:1;fill-rule:nonzero;stroke:none"
         d="m 15944.8,3123.71 v 2018.66 c 0,400.58 120.2,787.93 347.5,1120.19 7.7,11.31 4.8,26.75 -6.5,34.48 -11.3,7.75 -26.8,4.84 -34.5,-6.47 -232.9,-340.55 -356,-737.58 -356,-1148.2 V 3123.71 c 0,-401.36 118.1,-790.85 341.6,-1126.38 4.8,-7.17 12.7,-11.02 20.6,-11.02 4.8,0 9.5,1.32 13.8,4.13 11.4,7.61 14.5,22.99 6.9,34.4 -218.1,327.31 -333.4,707.33 -333.4,1098.87" />
    </g>
    <path
       id="path278"
       style="fill:#3f403e;fill-opacity:1;fill-rule:nonzero;stroke:none;stroke-width:0.0774831"
       d="m -146.47875,32.606235 c 0,60.339158 -49.51942,109.428555 -110.38236,109.428555 -60.86295,0 -110.38237,-49.089397 -110.38237,-109.428555 V -96.566549 c 0,-60.337611 49.51942,-109.427771 110.38237,-109.427771 60.86294,0 110.38236,49.09016 110.38236,109.427771 z m 2.85913,-129.172784 c 0,-29.872821 -11.81617,-58.038681 -33.26348,-79.307781 -21.45506,-21.26523 -49.8526,-32.97602 -79.97801,-32.97602 -30.12542,0 -58.52296,11.71079 -79.97802,32.97602 -21.44731,21.2691 -33.26348,49.43496 -33.26348,79.307781 V 32.606235 c 0,29.873594 11.81617,58.039461 33.26348,79.307785 21.45506,21.266 49.8526,32.97757 79.97802,32.97757 30.12541,0 58.52295,-11.71157 79.97801,-32.97757 21.44731,-21.268324 33.26348,-49.434191 33.26348,-79.307785 V -96.566549" />
  </g>
</svg>
