<?xml version="1.0" encoding="UTF-8" standalone="no"?>
<!-- Created with Inkscape (http://www.inkscape.org/) -->

<svg
   width="44.393501mm"
   height="44.041019mm"
   viewBox="0 0 44.393501 44.041019"
   version="1.1"
   id="svg972"
   xmlns="http://www.w3.org/2000/svg"
   xmlns:svg="http://www.w3.org/2000/svg">
  <defs
     id="defs969" />
  <g
     id="layer1"
     transform="translate(-93.813539,-81.74238)">
    <g
       transform="matrix(0.03702544,0,0,-0.03702544,-465.30763,298.75737)"
       id="g250">
      <path
         id="path252"
         style="fill:#3f403e;fill-opacity:1;fill-rule:nonzero;stroke:none"
         d="m 15700.7,4757.52 c -283.4,0 -513.9,228.38 -513.9,509.17 0,280.6 230.5,508.79 513.9,508.79 283.2,0 513.5,-228.19 513.5,-508.79 0,-280.79 -230.3,-509.17 -513.5,-509.17 z m 0,1103.72 c -330.6,0 -599.7,-266.69 -599.7,-594.55 0,-328.05 269.1,-594.93 599.7,-594.93 330.4,0 599.3,266.88 599.3,594.93 0,327.86 -268.9,594.55 -599.3,594.55" />
    </g>
    <path
       id="path256"
       style="fill:#3f403e;fill-opacity:1;fill-rule:nonzero;stroke:none;stroke-width:0.0365217"
       d="m 116.01875,89.884096 c -7.71703,0 -13.99145,6.222927 -13.99145,13.871294 0,7.65531 6.27442,13.88554 13.99145,13.88554 7.70972,0 13.97684,-6.23023 13.97684,-13.88554 0,-7.648367 -6.26712,-13.871294 -13.97684,-13.871294" />
  </g>
</svg>
