<?xml version="1.0" encoding="UTF-8" standalone="no"?>
<!-- Created with Inkscape (http://www.inkscape.org/) -->

<svg
   width="91.388885mm"
   height="180.62856mm"
   viewBox="0 0 91.388885 180.62856"
   version="1.1"
   id="svg2552"
   xmlns="http://www.w3.org/2000/svg"
   xmlns:svg="http://www.w3.org/2000/svg">
  <defs
     id="defs2549" />
  <g
     id="layer1"
     transform="translate(-41.398334,28.736935)">
    <g
       transform="matrix(0.03909942,0,0,-0.03909942,-53.806297,607.87688)"
       id="g178">
      <path
         id="path180"
         style="fill:#3f403e;fill-opacity:1;fill-rule:nonzero;stroke:none"
         d="m 4629.56,14601.6 c -87.45,-86.7 -186.74,-184.8 -381.32,-232.8 -105.93,-25.9 -215.63,-28.2 -321.73,-30.4 -115.47,-2.4 -234.9,-4.8 -350,-37.8 -10.47,-3 -20.78,-6.1 -30.99,-9.4 141.27,67.6 265.88,94.8 442.49,133.3 49.9,10.8 101.5,22 159.52,35.5 278.22,64.5 439.14,306.9 500.55,420 19.88,-29.9 33.96,-63.1 39.8,-96.5 11.51,-65.6 -8.66,-128.5 -58.32,-181.9 z m -1969.48,319 c -61.06,113 -120.45,248.1 -141.36,470.1 -24.35,426.7 133.06,702.4 245.5,784.4 41.74,26 81.11,28.7 124.35,23 -109.83,-188.1 -152.42,-406.3 -177.07,-580 -47.66,-341.8 28.04,-584.2 123.88,-891.3 20.21,-64.4 37.86,-123.2 53.32,-177.2 -16.16,25.6 -33.36,52 -51.67,79.9 -52.12,79.7 -111.19,170 -176.95,291.1 z m 378.26,1250.8 c -32.88,-269.5 -81.81,-411.1 -121.56,-526.1 -30.41,-87.9 -56.69,-163.9 -65.1,-267.8 -11.88,-146.4 21.84,-339.1 60.88,-562.1 8.09,-46.3 16.47,-94.4 24.79,-143.9 -7.76,25.7 -15.84,52 -24.48,79.6 -92.81,297.3 -166.11,532.1 -120.97,855.7 24.65,173.7 67.76,393.8 181.55,574.7 12.84,-2.7 25.87,-5.3 39.41,-7.5 8.89,-1.5 17.34,-2.2 25.48,-2.6 z m 132.06,-13.9 c 13.6,-12.3 27.14,-29 41.46,-46.7 24.04,-29.8 51.95,-64.2 90.69,-89.9 -9.15,-60.1 -37.41,-124.3 -72.12,-203.1 -48.07,-109.1 -107.86,-244.9 -136.43,-424.7 -44.21,-280.9 -67.81,-515.9 -73.06,-729.1 -9.49,57.1 -19.14,112.4 -28.41,165.4 -38.09,217.5 -70.98,405.4 -59.94,541.5 7.59,93.7 31.13,161.8 60.91,247.9 41.76,120.8 93.36,270 127.23,557.7 18.56,0.6 31.79,-3 49.67,-19 z m 422.1,-295.9 c -229.35,-333.1 -394.7,-742.5 -490.67,-1210 4.64,212.3 28,446.9 72.36,728.8 26.9,169.4 81.96,294.4 130.52,404.6 32.26,73.3 60.82,138.6 74.13,202.9 106.84,-30.6 163.93,-67.5 213.66,-126.3 z m 70.57,-310.3 c -27.81,-106.1 -90.91,-184.1 -157.71,-266.6 -40.98,-50.7 -83.38,-103.1 -116.07,-161.9 -2.21,-4 -3.49,-8.2 -4.26,-12.4 -59.67,-85.4 -113.73,-183.1 -161.78,-292.5 94,370.4 234.87,698.6 419.86,974 39.38,-61.9 46.05,-140.6 19.96,-240.6 z m 665.84,-308.3 -5.66,3.1 c -140.29,-261.7 -344.55,-371.9 -560.79,-488.5 -129.69,-70 -261.16,-141 -379.13,-246 124.17,162.7 268.59,271.4 410.8,378.4 169,127.1 343.35,258.3 468.32,475.8 4.19,-4.7 8.36,-9.4 12.12,-14.4 27.16,-36.1 40.75,-71.3 54.34,-108.4 z m 116.23,-192.7 c -34.51,-71.5 -153.02,-280.2 -397.59,-372.9 -41.64,-13.4 -83.01,-26.1 -123.94,-38.7 -184.64,-56.8 -362.24,-111.5 -515.82,-214.9 117.58,113.5 253.62,187.1 393.2,262.3 203.57,109.8 413.63,223.2 564.17,469.8 17.46,-33.7 41.74,-68.9 79.98,-105.6 z M 3216.16,14408 c 109.6,300.9 288.43,548.6 523.5,714.7 57.31,40.4 95.1,80.4 131.65,119.1 68.33,72.3 127.91,135 306.67,186.4 7.42,-3.4 14.22,-6.9 20.45,-10.5 -116.72,-209.6 -280.28,-332.9 -453.09,-462.8 -188.71,-142 -381.22,-286.8 -529.18,-546.9 z m 783.08,1038.2 c -89.89,-46.2 -139.08,-98 -186.96,-148.7 -35.35,-37.4 -68.74,-72.8 -119.43,-108.5 -172.43,-121.8 -316.04,-284.7 -426.4,-478.5 122.63,310.8 345.2,664.6 732.79,735.7 z m 546.04,-472.7 c 15.64,-7.9 30.55,-17.9 44.51,-29.3 -42.13,-83.1 -193.2,-343.1 -460.56,-405.2 -57.49,-13.2 -108.82,-24.4 -158.49,-35.2 -235.47,-51.3 -391.95,-85.5 -616.88,-226.4 163.22,151 373.1,215.9 593.61,283.7 41.6,12.8 83.65,25.7 125.97,39.4 l 1.88,0.6 c 255.76,96.6 386.11,302.1 434.33,396.3 10.15,-7.3 20.73,-14.6 32.2,-21.9 1.11,-0.7 2.26,-1.4 3.43,-2 z m 222.57,-175.9 c -17.82,101.7 -89.89,198.6 -183.83,247.3 -125.77,80.8 -149.36,145.3 -176.66,220 -15.76,43.1 -32.05,87.6 -68.07,135.6 -25.94,33.9 -59.26,63.5 -96.54,85.5 -72.6,42.3 -156.14,57.3 -241.49,43.1 -109.1,-17.7 -211.23,-56.4 -305.73,-115.1 18.91,35.7 34.91,74.1 46.09,116.8 32.74,125.5 21.98,226.7 -32.85,309.5 -74.97,113.3 -143.81,179.5 -311.9,226.9 -0.57,0.2 -1.15,0.3 -1.74,0.5 -54.31,12.7 -86.28,52.2 -120.13,94.1 -15.69,19.4 -31.92,39.5 -50.32,56 -52.26,47 -100.2,41.5 -138.73,37.1 -19.8,-2.3 -38.48,-4.4 -59.87,-0.8 -18.68,3.1 -37.46,7.1 -55.61,11.1 -78.97,17.1 -160.66,34.8 -250.68,-22.1 -0.69,-0.5 -1.38,-0.9 -2.06,-1.4 -109.34,-78.9 -308.6,-359.3 -280.02,-856.4 0.04,-0.5 0.07,-1 0.12,-1.5 22.19,-236.9 85.62,-381.2 150.88,-501.8 67.36,-124.2 127.41,-216 180.39,-296.9 66.01,-100.9 118.13,-180.6 149.27,-273.1 47.22,-139.9 53.97,-316.8 63.31,-561.6 2.49,-65.3 5.09,-133 8.66,-207 1.12,-40.5 3.08,-78.9 5.83,-114.8 0.02,-0.1 0.02,-0.2 0.03,-0.4 37.35,-483.9 189.43,-715.3 336.53,-939.2 135.74,-206.5 263.95,-401.6 305.09,-790.5 2.21,-20.8 19.81,-36.3 40.31,-36.3 1.43,0 2.88,0.1 4.32,0.2 22.31,2.4 38.46,22.4 36.12,44.7 -43.24,408.4 -182.9,620.9 -317.99,826.5 -141.42,215.2 -287.66,437.8 -323.43,900.7 -13.59,237.3 50.12,433 194.72,598.4 72.57,82.7 188.72,150.2 327.02,189.9 104.95,30 213.92,32.3 329.3,34.7 110.49,2.2 224.75,4.6 339.42,32.7 216.86,53.4 329.32,164.9 419.68,254.5 0.36,0.4 0.71,0.8 1.06,1.1 86.06,92.1 90.73,187.8 79.5,252" />
    </g>
  </g>
</svg>
