<?xml version="1.0" encoding="UTF-8" standalone="no"?>
<!-- Created with Inkscape (http://www.inkscape.org/) -->

<svg
   width="122.22963mm"
   height="147.92104mm"
   viewBox="0 0 122.22963 147.92104"
   version="1.1"
   id="svg2655"
   xmlns="http://www.w3.org/2000/svg"
   xmlns:svg="http://www.w3.org/2000/svg">
  <defs
     id="defs2652" />
  <g
     id="layer1"
     transform="translate(113.16636,50.486279)">
    <g
       transform="matrix(0.03907261,0,0,-0.03907261,-370.83494,586.12761)"
       id="g170">
      <path
         id="path172"
         style="fill:#3f403e;fill-opacity:1;fill-rule:nonzero;stroke:none"
         d="m 9484.54,15181.4 c -9.93,-10.6 -19.23,-20.5 -27.26,-29.4 -39.73,-43.8 -81.35,-87.5 -125.24,-133.7 -138.68,-145.7 -295.78,-310.9 -425.54,-516.5 -69.95,-110.9 -129.68,-216.4 -179.34,-316.5 125.29,589 340.7,1206.9 710.43,1541.3 24.47,-17.7 44.33,-27.5 59.59,-34.9 29.71,-14.6 37.74,-18.5 54.9,-100.1 9.39,-44.8 32.41,-71.6 52.72,-95.2 9.85,-11.5 19.15,-22.3 26.82,-35.2 45.14,-75.1 -79.9,-208.3 -147.08,-279.8 z M 7692.6,14240 c -69.22,0 -132.72,-3.5 -186.71,-8.2 -210.55,-18.3 -413.47,-71.6 -547.76,-106.9 -43.48,-11.4 -81.03,-21.3 -108.07,-27.1 l -5.18,-1.1 c -45.74,-9.7 -52.78,-7.4 -61.33,6.2 -10.08,15.6 -17.56,36.8 -24.79,57.3 -7.28,20.6 -14.15,40.1 -23.88,54.7 -5.09,7.9 -9.85,14.8 -14.21,21 -2.75,4 -5.14,7.4 -7.25,10.6 265.09,92.6 746.76,89.3 1156.27,-14.6 -61.47,5.8 -121.16,8.1 -177.09,8.1 z m -999.45,336.1 4.52,11.7 c 17.91,46.5 24.6,63.9 28.39,125.3 4.23,65.6 19.2,95.3 57.43,113.5 20.03,9.6 35.79,22 47.39,36.6 420.99,-78.1 1042.45,-338.7 1430.46,-686.9 -203.84,101.1 -479.62,174.2 -776.62,204.2 -300.62,30.3 -583.83,11.4 -776.34,-50.2 3.47,31.6 2.67,65.1 -12.81,100.2 -25.73,57.5 -26.15,83.4 -2.42,145.6 z m 135.72,608.2 c 8.58,13.6 19.16,25.9 30.34,38.9 4.34,5 8.81,10.3 13.27,15.7 375.33,-133.2 945.9,-511.6 1318.84,-901.6 -398.2,306.1 -949.71,530.6 -1338.45,604.4 -3.32,30.5 -15.76,63.1 -27.82,94.7 -7.78,20.3 -15.82,41.4 -17.89,54.2 -4.62,28.6 3.9,65.4 21.71,93.7 z m 95.09,149.7 c 13.04,43.6 18.44,61.7 52.94,77.1 21.35,9.7 92.52,45 111.65,88.4 8.52,19.3 12.69,41.4 16.72,62.7 3.62,19.2 7.38,39.1 13.21,49.8 9.75,17.7 25.65,38.1 69.51,55.9 18.58,7.6 34.2,16.8 51.34,30.8 459.97,-221.8 885.24,-808.8 1103.99,-1295.7 34.63,-77.4 64.57,-152.7 90.15,-224.1 -349.78,466.7 -1056.06,961.5 -1517.61,1130.6 2.2,5.6 4.22,11.4 6.05,17.6 z m 456.58,488.8 c 18.68,3.3 41.59,-4.5 68.13,-13.6 23.56,-8 50.26,-17.1 81,-20.9 30.12,-3.5 54.9,-5.1 74.83,-6.3 71,-4.3 90.09,-5.4 180.81,-89.9 145.23,-135.1 309.1,-383.6 389.84,-549.2 49.49,-113.9 156.67,-400.5 247.19,-717.7 -1.64,3.7 -3.24,7.3 -4.89,11 -221.08,492.1 -649.83,1084.8 -1119.03,1323.8 2.61,3.5 5.11,6.9 7.52,10.1 20.92,28.2 33.54,45.3 74.6,52.7 z m 795.09,345.2 c 25.74,17.7 53.25,21.4 73.33,9.7 33.22,-19.2 70.94,-24.3 111.99,-15 29.01,6.4 52.72,19.7 73.66,31.3 12.05,6.7 23.42,13.1 32.67,16.1 14.46,4.7 38.97,-0.2 55.08,-11.4 16.01,-10.8 29.79,-19 42.09,-25.2 -106.39,-311.5 -72.53,-831.7 -36.66,-1381.3 12.27,-188.1 24.66,-379 31.37,-563.5 -103.91,425.7 -262.12,837.3 -309.23,946 l -12.76,37 c -83.34,241.1 -278.51,805.7 -61.54,956.3 z m 585.71,-85.6 c 10.62,-13.5 21.59,-27.4 33.78,-39.8 20.16,-20.5 43.18,-38.5 68.3,-53.4 17.72,-10.7 35.81,-18.7 54.15,-24.8 -192.75,-372.1 -244.78,-940.3 -287.95,-1502.8 -6.19,111.8 -13.49,224.3 -20.77,335.9 -35.62,545.7 -69.3,1062.2 34.61,1356.4 1.33,-0.1 2.63,-0.1 3.97,-0.1 0.12,0 0.23,0 0.33,0 11.99,0.1 21.54,0 36.52,-4.5 32.09,-9.9 53.93,-37.6 77.06,-66.9 z m 421.82,-144.2 c 72.23,-9.2 131.82,-31.8 159.27,-60.1 17.52,-18.3 24.92,-39.8 32.68,-62.6 2.98,-9 6.14,-18 9.94,-26.9 -327.93,-295.6 -538.36,-799.4 -673.02,-1314.6 43.12,559.2 96.44,1121.2 288.7,1473.8 27.54,-2.7 55.13,-3.3 82.39,-3.9 32.78,-0.6 66.73,-1.4 100.04,-5.7 z m 518.25,-435.4 c -11.1,18.8 -23.83,33.6 -35.03,46.6 -17.24,20 -29.7,34.5 -34.85,58.9 -23.02,109.5 -46.5,130.8 -98.68,156.3 -17.52,8.6 -37.29,18.3 -63.38,39.7 -6.78,6 -11.74,20.6 -17.52,37.4 -9.3,27.3 -20.86,61.3 -50.92,92.8 -55.71,57.4 -153.94,77.4 -207.49,84.3 -37.55,4.9 -73.76,5.6 -108.7,6.4 -68.65,1.4 -127.95,2.6 -179.77,33.7 -19.23,11.5 -36.74,25.2 -52.09,40.8 -9.06,9.1 -18.18,20.7 -27.86,33 -27.01,34.2 -60.63,76.8 -117.1,94.3 -25.83,7.8 -44.09,8 -58.8,8 -0.95,0 -1.82,0.1 -2.67,0 -19.13,0 -33.69,0.6 -78.3,30.8 -36.92,25.6 -87.71,34.2 -126.14,21.5 -16.61,-5.4 -32.09,-14 -47.07,-22.3 -17.64,-9.9 -34.29,-19.2 -51.87,-23.1 -21.39,-4.8 -37.86,-2.9 -53.53,6.2 -48.09,27.7 -107.9,22.8 -160.2,-13.2 -192.56,-133.8 -146.05,-462.1 -65.93,-748.2 -70.23,99.9 -148.13,195.3 -222.85,264.8 -106.62,99.3 -142.67,106.2 -231.23,111.6 -19.9,1.2 -42.45,2.6 -70.07,5.8 -22.17,2.8 -43.67,10.1 -64.47,17.2 -34.08,11.6 -69.32,23.6 -108.7,16.6 -72.82,-13.1 -100.82,-50.9 -125.53,-84.3 -8.4,-11.3 -16.32,-22 -26.13,-32 -27.57,-28.1 -40.88,-36.6 -57.17,-43.2 -52.09,-21.2 -87.05,-50.4 -110.12,-92.2 -12.05,-22.1 -17,-48.3 -21.78,-73.7 -3.2,-16.8 -6.48,-34.3 -10.97,-44.5 -4.98,-8.6 -34.53,-31 -71.03,-47.7 -68.22,-30.4 -82.36,-77.8 -97.33,-127.9 l -2.07,-6.9 c -9.14,-30.9 -26.41,-50.9 -46.39,-74.1 -12.64,-14.7 -25.7,-29.8 -37.55,-48.6 -28.59,-45.5 -40.98,-101.5 -33.15,-150 3.42,-21 12.54,-44.9 22.2,-70.2 9.75,-25.6 20.82,-54.5 22.96,-74.6 0.28,-2.6 0.55,-5.9 -0.19,-9.6 -0.37,-0.9 -0.57,-1.9 -0.87,-2.9 -2.24,-6.3 -8.02,-13.4 -22.65,-20.5 -83.38,-39.6 -99.07,-114 -103.44,-181.6 -3.02,-49 -6.08,-56.9 -23.11,-101.2 l -4.6,-11.9 c -31.33,-82 -30.36,-130.6 4.07,-207.6 9.79,-22.2 8.68,-46.2 4,-75.6 -3.1,-19.5 -4.14,-35.6 -3.61,-49.4 -0.16,-3.4 0.02,-6.9 0.76,-10.3 3.24,-30 15.15,-49.2 31.5,-72.7 3.82,-5.5 8.04,-11.5 12.91,-19.1 4.48,-6.7 9.95,-22.2 15.26,-37.2 8.37,-23.8 17.89,-50.8 32.91,-74 40.62,-64.5 106.99,-50.4 146.69,-41.9 l 5.22,1.1 c 29.02,6.2 67.38,16.3 111.79,28 131.61,34.5 330.5,86.7 534.17,104.4 244.76,21.5 694.63,17.9 956.19,-246.8 73.72,-74.4 87.39,-173.6 80.55,-279.7 -0.12,-1.5 -0.21,-3 -0.32,-4.5 -0.03,-0.2 -0.03,-0.4 -0.05,-0.6 0,0 0,0 0,-0.1 -0.16,-2.2 -0.32,-4.3 -0.47,-6.5 -4.07,-52.5 -12.75,-106.4 -21.35,-159.8 -2.68,-16.7 -5.34,-33.2 -7.82,-49.5 -34.98,-229.7 -131.6,-559.7 -393.22,-827 -15.69,-16 -15.42,-41.7 0.62,-57.4 7.9,-7.8 18.15,-11.6 28.41,-11.6 10.54,0 21.07,4 29.02,12.2 276.75,282.7 378.69,630 415.49,871.6 2.44,16 5.06,32.3 7.71,48.8 8.11,50.4 16.53,102.7 21.16,155 0.32,1.7 0.52,3.4 0.62,5.2 0.16,3 0.34,6 0.54,9 0.13,1.6 0.24,3.1 0.35,4.7 0.15,1.6 0.26,3.3 0.41,4.9 0.89,11.3 2.11,22.8 3.51,34.4 1.7,12.2 3.52,24.6 5.29,37 33.95,210.8 146.37,468.5 335.62,768.3 125.44,198.9 272.97,353.9 415.71,503.9 44.25,46.6 86.14,90.6 126.5,135.1 7.85,8.6 16.7,18.1 26.36,28.4 87.67,93.3 234.3,249.5 157.64,377" />
    </g>
  </g>
</svg>
